<svg id="Capa_1" data-name="Capa 1" xmlns="http://www.w3.org/2000/svg" xmlns:xlink="http://www.w3.org/1999/xlink" viewBox="0 0 50 50"><defs><style>.cls-1,.cls-10{fill:none;}.cls-2{clip-path:url(#clip-path);}.cls-3{fill:#e30613;}.cls-4{clip-path:url(#clip-path-2);}.cls-5{fill:#61921e;}.cls-6{fill:#3e377b;}.cls-7{fill:#b2b2b2;}.cls-8{fill:#e3b931;}.cls-9{fill:#322c59;}.cls-10{stroke:#342d59;stroke-linecap:round;stroke-linejoin:round;stroke-width:2.16px;}</style><clipPath id="clip-path"><path class="cls-1" d="M-11.5-32.51c0,11-11.91,22.33-16.08,26a2.2,2.2,0,0,1-2.87,0c-4.2-3.51-16-14.44-16-26A17.5,17.5,0,0,1-29-50,17.5,17.5,0,0,1-11.5-32.51Z"/></clipPath><clipPath id="clip-path-2"><path class="cls-1" d="M-11.5,20.5c0,11-11.91,22.32-16.08,26a2.21,2.21,0,0,1-2.87,0c-4.2-3.5-16-14.44-16-26A17.5,17.5,0,0,1-29,3,17.5,17.5,0,0,1-11.5,20.5Z"/></clipPath></defs><title>Iconos_APPSistAlertasTempranas</title><g class="cls-2"><path class="cls-3" d="M-54.47-2.4c9.3,10.62,30,7.72,46.2-6.48S13.55-43.21,4.25-53.83s-30-7.72-46.21,6.48S-63.77-13-54.47-2.4Z"/></g><g class="cls-4"><path class="cls-5" d="M-49,6.25c1.54-.9,1.3-2.6,1.75-4C-40-19.95-18.9-29.69,2.59-24.94c-2.82,1.28-5.5,2.38-8.07,3.69C-25.61-11-33.14,11.76-23.39,32.5-18.34,43.25-10,50.67.4,56H-20.53a4.25,4.25,0,0,0-1-.71c-14-5.15-22.24-15.24-26.1-29.25-.3-1.08,0-2.55-1.41-3.2Z"/></g><path class="cls-6" d="M20.26,6.07s-6.41,3.74-3.39,14.11c0,0,9.26,25.42,22.33,18.8C39.2,39,15,32.92,20.26,6.07Z"/><ellipse class="cls-7" cx="31.77" cy="21.47" rx="2.25" ry="4.5" transform="translate(-4.73 9.72) rotate(-16.22)"/><path class="cls-8" d="M16,13.88S6,28,3.69,29.63c0,0,3.77,13,9.09,15.16L32.9,39.88,24.34,33l-2.73-3-2.87-6.66-1.76-6Z"/><path class="cls-9" d="M38,41.11c-5.41,1.58-13.08-3.52-18.26-12.42-5.66-9.75-5.86-19.84-.46-23C22,4.16,25.51,4.6,29.3,7A30.2,30.2,0,0,1,39,17.5c5.67,9.75,5.87,19.85.47,23A6.79,6.79,0,0,1,38,41.11ZM21.27,6.87a4.41,4.41,0,0,0-1.05.44c-4.35,2.53-3.83,11.89,1.14,20.45S34.2,41.41,38.55,38.88,42.38,27,37.41,18.44a28.55,28.55,0,0,0-9.09-9.91C25.66,6.88,23.2,6.31,21.27,6.87Z"/><path class="cls-9" d="M21.8,6.75C20.6,8.18,20,10.44,20.11,13.3a28.52,28.52,0,0,0,4.1,12.8A28.51,28.51,0,0,0,33.3,36c2.43,1.51,4.68,2.12,6.53,1.79a4.91,4.91,0,0,1-1.28,1.09,4.71,4.71,0,0,1-1.82.6,14.67,14.67,0,0,1-4.41-1.9A30.33,30.33,0,0,1,22.61,27a30.28,30.28,0,0,1-4.35-13.66,14.48,14.48,0,0,1,.53-4.77,4.83,4.83,0,0,1,1.43-1.28A4.74,4.74,0,0,1,21.8,6.75Z"/><path class="cls-9" d="M32.91,41h0l-18,4.68a5.4,5.4,0,0,1-2.6.2,5.07,5.07,0,0,1-2.53-1.8A32.84,32.84,0,0,1,2.43,29.8a.92.92,0,0,1,.31-.91A53.24,53.24,0,0,0,15.18,13.53a.93.93,0,1,1,1.63.88A55.11,55.11,0,0,1,4.37,29.94a31.08,31.08,0,0,0,6.73,13,3.52,3.52,0,0,0,1.57,1.21,3.77,3.77,0,0,0,1.7-.19l18-4.67a.94.94,0,0,1,1.14.66A.92.92,0,0,1,32.91,41Z"/><path class="cls-9" d="M34,26.66A3,3,0,0,1,31.42,26a9.42,9.42,0,0,1-2.5-2.88,8.58,8.58,0,0,1-1.28-4.24l-.76.35c-.43.2-.85.4-1.26.57l-4,1.66A.93.93,0,0,1,20.37,21a.92.92,0,0,1,.5-1.21l4-1.66c.38-.15.78-.34,1.18-.53a13.28,13.28,0,0,1,2.8-1.08c1.91-.41,3.82.85,5.38,3.55,1.42,2.43,1.93,5.43.18,6.46A2.35,2.35,0,0,1,34,26.66Zm-4.29-8.4h0c-.26.15-.4,1.75.86,3.91a7.32,7.32,0,0,0,2,2.29c.57.41.92.45,1,.39.28-.16.42-1.76-.84-3.92C32.19,20.13,31,18.37,29.72,18.26Z"/><path class="cls-9" d="M27.93,32.75a.93.93,0,0,1-.9-1.57l6.18-5.86a.93.93,0,0,1,1.28,1.34l-6.18,5.87A1,1,0,0,1,27.93,32.75Z"/><path class="cls-9" d="M28.82,13.75a1,1,0,0,1-.44-.1A1,1,0,0,1,28,12.36L32.21,4a1,1,0,0,1,1.71.87l-4.25,8.37A1,1,0,0,1,28.82,13.75Z"/><path class="cls-9" d="M35.28,17.23a1,1,0,0,1-.8-.42,1,1,0,0,1,.27-1.33L41,11.34a1,1,0,1,1,1.06,1.59l-6.26,4.15A1,1,0,0,1,35.28,17.23Z"/><path class="cls-9" d="M44.78,10.87a1,1,0,0,1-.51-1.76L45,8.63a1,1,0,0,1,1,1.62l-.76.48A1,1,0,0,1,44.78,10.87Z"/><path class="cls-9" d="M37.37,29.81a1,1,0,1,1,0-1.91l6.18,0a1,1,0,0,1,1,.95,1,1,0,0,1-1,1l-6.17,0Z"/><path class="cls-9" d="M47.79,29.68h-.86a1,1,0,0,1,0-1.91h.86a1,1,0,0,1,0,1.91Z"/><path class="cls-9" d="M36.94,24.11a1,1,0,0,1-.23-1.88l10-2.48a1,1,0,0,1,.46,1.86l-10,2.48Z"/><path class="cls-10" d="M15.55,40.7a67.31,67.31,0,0,0,11.34-3.51"/><path class="cls-10" d="M16.87,36.73,24.26,34"/><path class="cls-10" d="M12.18,37.88l.51-.1"/></svg>