<svg id="Capa_1" data-name="Capa 1" xmlns="http://www.w3.org/2000/svg" xmlns:xlink="http://www.w3.org/1999/xlink" viewBox="0 0 50 50"><defs><style>.cls-1{fill:none;}.cls-2{clip-path:url(#clip-path);}.cls-3{fill:#e30613;}.cls-4{clip-path:url(#clip-path-2);}.cls-5{fill:#fdfdfd;}.cls-6{fill:#116576;}.cls-7{fill:#116a6f;}.cls-8{fill:#095f76;}.cls-9{fill:#147466;}.cls-10{fill:#4a8e80;}.cls-11{fill:#466c22;}.cls-12{clip-path:url(#clip-path-3);}.cls-13{fill:#fff;}.cls-14{fill:#61921e;}.cls-15{fill:#1d1d1b;}</style><clipPath id="clip-path"><path class="cls-1" d="M42.5-32.51c0,11-11.91,22.33-16.08,26a2.2,2.2,0,0,1-2.87,0c-4.2-3.51-16-14.44-16-26A17.5,17.5,0,0,1,25-50,17.5,17.5,0,0,1,42.5-32.51Z"/></clipPath><clipPath id="clip-path-2"><path class="cls-1" d="M-9.5,20.5c0,11-11.91,22.32-16.08,26a2.21,2.21,0,0,1-2.87,0c-4.2-3.5-16-14.44-16-26A17.5,17.5,0,0,1-27,3,17.5,17.5,0,0,1-9.5,20.5Z"/></clipPath><clipPath id="clip-path-3"><path class="cls-1" d="M42.5,20.5c0,11-11.91,22.32-16.08,26a2.21,2.21,0,0,1-2.87,0c-4.2-3.5-16-14.44-16-26a17.5,17.5,0,0,1,35,0Z"/></clipPath></defs><title>Ícono_APPSistAlertasTempranas</title><g class="cls-2"><path class="cls-3" d="M-.47-2.4c9.3,10.62,30,7.72,46.2-6.48S67.55-43.21,58.25-53.83s-30-7.72-46.21,6.48S-9.77-13-.47-2.4Z"/></g><g class="cls-4"><path class="cls-5" d="M15.12,38.26V97.09c0,.28-.06.35-.35.35H-75.65c-.28,0-.35-.07-.35-.35q0-58.87,0-117.74c0-.28.07-.35.35-.35q45.21,0,90.42,0c.29,0,.36.07.35.35ZM-41.46,10.15l-.07.09-.12.12c-.15.42-.59.53-.88.8h0c-.09,0-.13.05-.14.14v0c-.08,0-.14.05-.15.14h0c-.13.28-.29.48-.66.38-.14,0-.37-.07-.44.11s.06.33.2.45h0c0,.09.13.32-.08.25s-.25.15-.34.25l-.1.06a.57.57,0,0,0-.45.33h0c-.14,0-.12.28-.23.27-.34,0-.41.29-.59.47s-.12.12-.07.19.16,0,.23,0,.2-.21.35-.05.24.3,0,.49h0a.93.93,0,0,0-.38.38c0,.11-.07.22.1.26s.25-.09.31.06-.22.13-.24.29c.24.09.29.15,0,.34a.76.76,0,0,0-.11,1.17l0,.08s0,.06,0,.06h0c.15.26-.12.41-.16.63a4,4,0,0,0,.1,1.15c0,.33-.07.38-.34.33h-.14a.33.33,0,0,0-.14.5v.17s0,0,0,.06c0,.33,0,.6.42.67a.48.48,0,0,1,.41.56c0,.32-.24.22-.42.22s-.19.12-.22.28.18.72-.4.69c-.08,0-.12.08-.1.17a.16.16,0,0,0,.22.1l.7-.19c.09,0,.22-.05.19.07-.09.3.13.62-.06.92h0c-.16,0-.27-.06-.23-.26s.05-.21-.08-.25-.21,0-.24.16l-.09.09c-.11.09-.3.14-.18.35l.46.4c.22.18.33.55.75.35.09,0,.13.1.13.19a.65.65,0,0,0,.4.65c.17.08.21.2.08.37a.31.31,0,0,0-.08.24.6.6,0,0,0,.23.7.39.39,0,0,0,.3.16c.06.14,0,.24-.1.35s-.11.15,0,.25v.47a1.73,1.73,0,0,1-.57.3c-.07,0-.14.08-.14.17s.09.09.16.12c.41.15.47.28.31.72-.35,0-.65-.19-1-.16h0c0-.06-.07-.13-.16-.13l-.22-.1c-.18-.15-.21-.14-.27.09a.47.47,0,0,0,0,.31.59.59,0,0,0-.36.45h0a.7.7,0,0,1-.38,0c-.33-.18-.15-.47-.17-.72s0-.46-.31-.33c-.11,0-.23.08-.32,0s0-.22,0-.32a.74.74,0,0,0-.07-.76c-.1-.12-.18-.23,0-.35s.28-.36.54-.29.2.14.11.27a.73.73,0,0,0,0,.48c0,.22.18.22.29.15s.43,0,.53-.23,0-.17-.14-.16a.25.25,0,0,1-.27-.21.64.64,0,0,0,0-.54.91.91,0,0,0-.12-.62,2.29,2.29,0,0,0-.08-.69c-.19-.23-.54-.09-.73-.33,0,0-.08.07-.06.11a1.25,1.25,0,0,1-.06.74c0,.17,0,.37.24.41s.12.18.09.3a.41.41,0,0,0-.3.14c-.07.07-.15.17-.26.12s-.07-.18-.07-.27c0-.51,0-1,0-1.54,0-.28-.3-.41-.22-.69a.14.14,0,0,0,0-.16.41.41,0,0,0-.26-.31c-.24-.12-.26-.34-.11-.48.3-.27.13-.49,0-.73l0-.17a.5.5,0,0,0-.1-.38c-.08-.1-.26-.13-.2-.31a.32.32,0,0,0,.28-.16,4,4,0,0,0,.46-.14c.18-.07.12-.14,0-.21s-.25-.47-.59-.32c-.11.05-.24,0-.21-.14s-.08-.4.13-.48.16.11.18.23.19.17.31.13.07-.15,0-.23a.22.22,0,0,1,0-.31l.28-.32a.24.24,0,0,0-.05-.39c-.15-.09-.22,0-.29.15s-.24.28-.33,0-.21-.21-.36-.13a1.92,1.92,0,0,1-.61.21.24.24,0,0,1-.3-.12c-.06-.16.1-.14.18-.17a.36.36,0,0,0,.22-.38c0-.23-.18-.1-.28-.12s-.28-.14-.17-.32a.52.52,0,0,1,.32-.31c.07,0,.22,0,.19-.12a.3.3,0,0,0-.19-.19c-.3-.12-1.08.42-1.07.76,0,.09.09.12.12.19.23.41.15.71-.21.83-.17.19-.42,0-.63.11a1,1,0,0,0,.39.37c0,.11.15.15.24.2.08.32-.07.32-.3.22s-.2-.12-.27,0,0,.19.12.25V21a.13.13,0,0,0-.06.15.31.31,0,0,0,0,.31.58.58,0,0,1,0,.39h0c-.13.08-.16.18-.08.3l0,.16a.37.37,0,0,0,.12.3V23a3.22,3.22,0,0,0-.2,1.59c0,.05,0,.12.06.13.37.21.31.6.36.92s.15.9.64,1.11a.21.21,0,0,1,.08.37c-.26.3-.13.36.18.35.15,0,.36-.05.32.2s-.07.32-.33.24-.24.08-.15.22.13.46.46.41c.11,0,.18.09.22.19s0,.18-.14.22-.2.19-.08.3.2,0,.28-.08a.29.29,0,0,1,.11-.11c.18-.08.42-.22.55,0s-.15.25-.29.33a.34.34,0,0,0-.12.09c-.22.18-.06.21.09.25a.46.46,0,0,1,0,.38c-.08.25.06.31.27.29s.3,0,.41.12a1,1,0,0,0,.64.45c.07,0,.15.05.14.15s-.08.08-.14.11-.38.08-.36.22.27.1.41.17.22.08.32.12.16.09.12.17c-.21.46.25.57.43.82s.26.2.31-.07.18-.21.29-.11.36.22.33.46c0,0-.08,0-.12,0s-.32-.07-.34.13.12.26.27.33l0,0h0a2.42,2.42,0,0,1,.1.36c0,.12.11.26.26.22s.07-.17,0-.26-.05-.21.08-.25a.21.21,0,0,1,.29.16c.06.44.49.77.32,1.27-.06.19.06.37.31.22s.4,0,.55.17v0s0,.07.06.07h0a.18.18,0,0,0,.15.15h0a.16.16,0,0,0,.15.16,4.54,4.54,0,0,0,.66.79.29.29,0,0,0,.31.1.44.44,0,0,1,.58.36c0,.44.43.6.62.67.52.2.92.68,1.53.64.09.1.18.21.28.31s.21.14.33,0,.13-.2.24-.07.14.21,0,.32c-.37.38-.33.55.23.48,0,0,.07,0,.11,0,.37,0,.72.32,1.11,0,.14-.11.34,0,.47.14s.17.21.29.1.41-.07.6.08a1,1,0,0,0,.38.16,1,1,0,0,1,.66.59c.08.32.19.3.43.29a2,2,0,0,1,1.23.18.13.13,0,0,0,.14.1h0l.86.1v0h0c.1-.39.34-.48.69-.33a.38.38,0,0,0,.15,0h.41a.44.44,0,0,0,.37,0c.21.18.41.5.69.07A.12.12,0,0,0-30,41c.23,0,.28-.16.39-.28.33-.08.5.1.6.38,0,.09.07.28.16.2a.58.58,0,0,1,.82,0s.07,0,.11,0a.77.77,0,0,1,.63,0c.22.1.36.07.38-.18s.19-.22.36-.14h0a.18.18,0,0,0,.17.14h0c0,.13.14.21.26.17s.06-.17.06-.27c0-.26.26-.37.32-.3s.41.19.6.31.27.26.42,0,0-.29-.14-.41-.2-.46-.16-.7a.34.34,0,0,1,.44-.27.12.12,0,0,0,.16-.07.15.15,0,0,0-.06-.17c-.07,0-.16-.06-.21,0-.17.26-.38.13-.58.06l0-.12a.14.14,0,0,0,.13-.14h0c.09,0,.13-.06.15-.14.23-.25.4-.15.58.07s.22.37.42.17a.41.41,0,0,1,.66,0c.18.17.31.16.33-.12,0-.1,0-.23.14-.17.36.2.58-.06.82-.23.41-.29.91-.48,1.1-1,.05-.13.22-.13.34-.16A2.05,2.05,0,0,0-19.33,37h0v0l0-.08a1.4,1.4,0,0,0,.71-1.08h0c.15-.05.12-.28.26-.31.55-.08.56-.66.89-.93h0a1,1,0,0,0,.4-.45v0a.22.22,0,0,0,.19-.19h0a.6.6,0,0,0,.3-.38c.1-.3.27-.31.49-.14a.37.37,0,0,0,.6-.06.55.55,0,0,1,.5-.2,1.59,1.59,0,0,1,.38,0c.22,0,.17-.43.41-.23s-.08.36,0,.55,0,.27-.14.36a1,1,0,0,0-.58.67.58.58,0,0,1-.55.14c-.12,0-.23,0-.26.13l.06.41a.24.24,0,0,1,0,.1c-.24.22-.6.41-.12.76.09.07,0,.22-.07.3s-.17.2-.29.17-.1-.18-.1-.29-.08-.22-.19-.12c-.26.25-.64.41-.79.75a.54.54,0,0,1-.58.33c-.33,0-.41.09-.34.46-.05,0,0,.1,0,.16l-.06,0a1.18,1.18,0,0,1-.62,0,.22.22,0,0,0-.3.07c-.07.07-.11.15,0,.24l0,0,0,0h0c0,.37-.22.35-.46.37a.31.31,0,0,0-.25,0,.23.23,0,0,0-.26,0l-.07.07c-.37-.06-.32.3-.48.46s-.12.21-.07.34-.23,0-.35,0a.22.22,0,0,0-.22,0c-.19,0-.13.11-.09.19a.59.59,0,0,1,0,.55h0a.26.26,0,0,0-.26.14s0,0,0,0c-.2,0-.4,0-.53.17a.26.26,0,0,0-.24.06c-.51,0-1,.32-1.49.19-.09,0-.17.07-.2.16-.16.58-.78.42-1.13.72,0,0-.11,0-.13,0-.17-.3-.35-.11-.54,0s-.35.26-.58.29-.15,0-.17.1a.8.8,0,0,1-.3.28c-.17.14,0,.17.07.23h0c.1.18-.08.32-.07.49s-.15.52.29.42h0c0-.18.23-.17.31-.29s.3,0,.37-.14l.09,0c.18.1.63-.21.52.34l0,.16c.17.21.29.17.48-.16l0,0c.07,0,.09-.05.1-.11h0a.16.16,0,0,0,.11-.17h0v0l.23,0,.24.14c0,.07,0,.14,0,.21s-.26.11-.12.24.25.2.39,0l.15-.14a.51.51,0,0,1,.65-.12.5.5,0,0,0,.65-.13,2.52,2.52,0,0,1,1.22-.71,1.14,1.14,0,0,0,.33-.07c.27-.15.18-.6.55-.66-.13-.39.2-.36.41-.42a1.45,1.45,0,0,0,.69-.28,3.41,3.41,0,0,1,.71-.37.77.77,0,0,0,.52-.42c.18-.5.72-.77.78-1.34,0-.1.13-.16.23-.17.31,0,.45-.27.6-.49s.34-.73.71-.94c.17,0,.39.13.5-.13l0,0h0c.12,0,.17-.06.16-.18v-.15l0-.33,0-.1c.15-.1.08-.24.08-.36-.06-.35.14-.27.33-.21h.05c.16-.09,0-.24.08-.35s.16-.25-.05-.32h0a.14.14,0,0,0-.22,0,.42.42,0,0,1-.42,0l0,0h0v-.22l.16,0a.31.31,0,0,0,.23,0c.18,0,.37,0,.45-.2V34.6a.46.46,0,0,1,.15-.32,1,1,0,0,0,.39-.24c.22-.17.46-.33.11-.61a.14.14,0,0,1,0-.21c.07-.07.14,0,.21,0,.24.09.37,0,.39-.25s.19-.3.41-.28.24,0,.24-.11-.14-.08-.22-.07-.19,0-.24-.07a.2.2,0,0,1,.07-.24,3.76,3.76,0,0,0,.76-1c.15-.22.13-.53.36-.71h0a.17.17,0,0,0,.16-.14h0a.6.6,0,0,0,.33-.3.05.05,0,0,0,.05,0c.1,0,.19-.08.14-.17a.51.51,0,0,1,0-.53.61.61,0,0,0,0-.44v-.15c0-.21-.16-.35-.2-.54l0-.15c0-.07,0-.15,0-.23.08-.5-.09-1,0-1.51a1,1,0,0,0-.16-1h0a1.68,1.68,0,0,1,0-.45c.08-.54-.05-.76-.59-.94-.22-.07-.27-.22-.18-.38s.13-.69.39-1c.08-.09.19-.21.06-.37a.11.11,0,0,1,0-.19c.54-.08.27-.45.23-.71s0-.31.21-.23.22-.06.27-.19,0-.19-.11-.23-.15-.18-.07-.3h.24a.67.67,0,0,1,.58.51,1.71,1.71,0,0,0,.38.73l.05.1a1.25,1.25,0,0,0,0,.19c.09.28.08.49-.31.45a1.09,1.09,0,0,0-.26,0c-.28.06-.69,0-.3.49.06.06,0,.15,0,.22s-.1.19,0,.26v0c.18.26.23.59.49.81h0c.07.17.14.29.36.16s.35-.28,0-.62v-.16c.21-.07.43-.14.64-.19a.27.27,0,0,1,.36.14c.09.27.24.52.34.8s0,.7.29,1c0,0,0,0,0,.05v.23h0c-.12.08-.11.15,0,.23a.23.23,0,0,0,.13.16s0,0,0,0v.34c-.09.35.17.65.15,1,0,.1.13.07.15-.06A.14.14,0,0,0-7.64,27a.24.24,0,0,0,.06-.23.69.69,0,0,0,.17-.55l.08-.15h0c.07,0,.08-.08.08-.14h0a.23.23,0,0,0,.17-.15s0,0,.06,0,.14-.06.17-.13c.51-.47.53-.53.22-.87h0l-.08-.06-.07-.1c-.12-.27.15-.41.21-.62s.14-.19,0-.28-.16,0-.22.08-.32.13-.33,0c0-.39-.36-.42-.61-.55-.06,0,0-.16,0-.15.27.07.54-.3.8,0,.05.06.12.18.21.07a.16.16,0,0,0-.1-.25c-.24-.06-.24-.17-.13-.35s.06-.21-.07-.26-.21,0-.28.13c-.21.34-.32.35-.63.09v-.16c.2-.33.17-.93.84-.74.06,0,.12,0,.12-.12s0-.13-.13-.11c-.49.17-.46-.22-.53-.5s-.06-.67-.39-.87v0a.24.24,0,0,0-.19-.11h0A1.3,1.3,0,0,0-8.68,19v0l0,0c-.12-.29-.35-.53-.3-.88,0-.1-.08-.2-.2-.24h0c-.08-.35-.47-.49-.55-.84h0a3,3,0,0,0-.52-.55l-.06-.09a.44.44,0,0,0-.24-.31h0a.14.14,0,0,0-.1-.13l-.08-.09s0-.06-.07-.07l-.14-.09a2,2,0,0,0-.55-.37h0a.2.2,0,0,0-.13-.17c-.06-.1-.11-.2-.22-.24h0l-.09-.07h0a.67.67,0,0,0-.27-.33h0a2,2,0,0,0-.7-.76l-.11-.12c-.27-.36-.72-.51-1.05-.79h0c-.21-.29-.55-.42-.79-.67h0c0-.05,0-.07-.06,0L-15.1,12s-.05-.1-.08-.12a11.59,11.59,0,0,0-2.05-.38.38.38,0,0,1-.23-.11c-.12-.08-.17-.23-.32-.25h0a1.7,1.7,0,0,0-1.08-.71c-.37,0-.76,0-1.13,0-.84-.1-1.66.19-2.52,0a3.62,3.62,0,0,0-1.89.17.3.3,0,0,1-.18,0,4.87,4.87,0,0,0-1.77-.22c-.18,0-.34,0-.43.19a.23.23,0,0,1-.29.13,3.19,3.19,0,0,0-1.23.08c-.17,0-.27.15-.15.29s0,.26-.14.34-.45,0-.55.27h0a8.58,8.58,0,0,0-1,.18,1.34,1.34,0,0,0-1,.51l-1,.4c-.11.05-.18.12-.17.23,0,.33-.13.39-.41.35a.11.11,0,0,0-.13.11h0a.8.8,0,0,1-.15.21,7.57,7.57,0,0,0-1.08,1.18c-.21.17-.48.31-.55.57a2,2,0,0,1-1,1.43h0a.51.51,0,0,0-.22.24l-.08.1c-.07,0-.1.06-.12.12l0,.05h0v0l-.32.35c-.05.06-.14.12,0,.2l0,.15a.33.33,0,0,0,0,.24v.24A14.59,14.59,0,0,0-37,20a.51.51,0,0,1-.4.38c-.2,0-.19-.2-.25-.32-.15-.29-.22-.32-.58-.13a1.6,1.6,0,0,0,.29.19c.29.12.14.35.12.53s.08.48-.29.46a.05.05,0,0,0,0,0,.12.12,0,0,0-.11-.1c-.05-.13-.14-.2-.26-.11s0,.17,0,.25a.5.5,0,0,0,.44.32c.09.14.4,0,.35.26s-.26.06-.4.1-.06,0-.08,0c-.18.12-.32.14-.39-.12,0,0-.08-.06-.12-.06a.12.12,0,0,0-.1.14.5.5,0,0,1,0,.3.31.31,0,0,0,.09.44c.23.18.2-.1.28-.17s.28,0,.39.09.21.19.08.23c-.31.08-.26.28-.26.49a.3.3,0,0,1-.21.29c-.09,0-.18,0-.08.15.06.27-.27.22-.32.4l-.05.07c-.18.07-.23.24-.32.37s0,.34.16.43.28,0,.32-.21,0-.18.07-.26a.27.27,0,0,1,.31-.17.36.36,0,0,1,.33.23c0,.15,0,.24-.17.29s-.23.25-.42.26a.12.12,0,0,0-.11.13c0,.08.06.18.13.17.24,0,.3.21.46.31,0,.06,0,.12.09.14h0c.06.11.18.18.18.32l0,.13a.05.05,0,0,0-.06,0c-.19.49-.53.53-1,.34,0,0-.12,0-.19,0-.56,0-.59-.05-.53-.61,0-.34.12-.69-.22-1l0-.1V24.8l0-.18a2.2,2.2,0,0,0,0-1.14h0c0-.13-.11-.2-.19-.29V23c.29-.17,0-.49.17-.69h0c.28-.21.26-.53.28-.83a3.19,3.19,0,0,1,0-1,.89.89,0,0,0,0-.68c-.1-.24-.09-.45.19-.57.13-.06.24-.17.09-.33v-.39l.12-.18,0,0a.28.28,0,0,1,.43,0c.5.48.53.48,1,0h0c.12-.2,0-.53.32-.6s.3-.27.12-.48l0-.13a.67.67,0,0,0,.25-.3h0c.12-.15.27-.28.24-.5v-.15l.08-.16h0c.25-.06.61.16.72-.28a2.82,2.82,0,0,0,.59-1.26c.05-.07.13-.12.13-.23l0-.07a.53.53,0,0,0,.22-.31h0l.06-.07h0v0a2.25,2.25,0,0,0,1.56-.8c.13-.19.2-.45.37-.58a7.87,7.87,0,0,1,1.78-1c.46-.19,1-.06,1.4-.37a3.61,3.61,0,0,1,1.45-.66,1.49,1.49,0,0,0,.72-.33.61.61,0,0,1,.51-.11,7.58,7.58,0,0,0,1.65,0c.34,0,.65-.24,1-.17a2.92,2.92,0,0,0,1.63.05.44.44,0,0,1,.16,0c.36.05.73.26,1.1,0,0,0,.17,0,.25,0,.48.18,1-.06,1.45,0,.13,0,.33-.08.53-.06.46.05.81.5,1.32.33.05,0,.13.08.19.12s.3.2.46.28c.86.4,1.81.61,2.65,1.07a.32.32,0,0,0,.49-.11c.05-.08.19-.11.22,0,.09.35.37.39.65.45a.2.2,0,0,1,.18.21c0,.24.07.37.35.27s.31.06.33.26-.06.17.05.2.14-.05.19-.1a.39.39,0,0,0,.14-.38c-.05-.23.11-.3.29-.29a1.44,1.44,0,0,1,.67.16c.33.19.67.36,1,.53.12.06.36.29.31-.13,0-.1.08-.14.16-.1.37.15.75.3,1.12.47s.43.47.64.55a1.55,1.55,0,0,0,1.34-.09.52.52,0,0,1,.63,0,5.7,5.7,0,0,0,1.4.69l0,0h0c.05,0,.09.1.14.12l2,.9c.66.27,1.28.62,2,.83a8.67,8.67,0,0,0,1.09.57.15.15,0,0,0,.16.09.85.85,0,0,0,.45.21l.1,0a1.56,1.56,0,0,0,.75.31l0,0h0c.15.12.29.17.44,0h0A.35.35,0,0,0,2.87,17h0c.19,0,.23-.15.21-.32a.45.45,0,0,1,.08-.42h.26a.22.22,0,0,0,.21.1s.06.05.1,0a3,3,0,0,0,.75.39l.08.05.61.48h0l.25.36v0a.37.37,0,0,0,.13.4h0c0,.18.18.26.33.33v0h0a.07.07,0,0,0,.1.06v0h0a.31.31,0,0,0,.28.13l.07,0c.1.15.25.12.39.12l.07,0a.25.25,0,0,0,.23.16h0a.2.2,0,0,0,.16.13.15.15,0,0,0,.19,0,.72.72,0,0,0,.43.12.15.15,0,0,0,.18,0,.25.25,0,0,0,.22.09v0h0a.21.21,0,0,0,.25.12c.12.11.22.28.35.3a3.27,3.27,0,0,1,1.37.8,1.12,1.12,0,0,0,.5.18.68.68,0,0,1,.59.43.65.65,0,0,0,.66.41A3.86,3.86,0,0,0,14,21a.25.25,0,0,0,.13-.26c0-.59-.12-1.17-.13-1.76,0-.39-.33-.58-.76-.52-.17,0-.21-.12-.24-.24a.61.61,0,0,0-.21-.4c-.43-.27-.7-.75-1.23-.88a.24.24,0,0,1-.15-.17,9.24,9.24,0,0,0-.82-1.15h0a.34.34,0,0,0-.21-.24h0a1.58,1.58,0,0,0-.54-.55h0a.86.86,0,0,0-.32-.36c-.06-.11-.09-.28-.18-.33A8.83,8.83,0,0,1,8,13a.23.23,0,0,0-.22-.14c-.12-.11-.27-.07-.41-.09a3.54,3.54,0,0,1-.19-.33c-.13-.32-.31-.5-.7-.42a.36.36,0,0,1-.44-.34.35.35,0,0,0-.43-.36c-.13,0-.26,0-.22-.18.13-.55-.26-.86-.54-1.23a.84.84,0,0,0-.66-.46c-.85-.06-1.15-.9-1.79-1.25,0,0,0-.05,0-.07A3.86,3.86,0,0,0,.78,6.23h0A.65.65,0,0,0,.51,6V6l0-.06,0,0A9.91,9.91,0,0,0-.53,5h0c0-.13-.12-.18-.23-.23h0a.06.06,0,0,0-.07-.07h0a4.27,4.27,0,0,0-.93-.92h0A.33.33,0,0,0-2,3.52h0A1.82,1.82,0,0,0-2.52,3h0A1.45,1.45,0,0,0-3,2.5h0a.36.36,0,0,0-.22-.23h0l-.07-.07h0A.23.23,0,0,0-3.42,2h0a.25.25,0,0,0-.18-.18h0a.06.06,0,0,0-.07-.07h0a1.49,1.49,0,0,0-.42-.48h0a.67.67,0,0,0-.3-.3h0c0-.08,0-.14-.14-.15h0A.29.29,0,0,0-4.77.6h0L-4.84.52h0A1.2,1.2,0,0,0-5.28,0h0c0-.11-.1-.15-.17-.21l-.08-.08h0l0-.06c-.5-.69-1.11-1.3-1.57-2a.68.68,0,0,0-.66-.33.37.37,0,0,1-.32-.18c-.23-.34-.29-.76-.6-1.06S-9-4.83-9.59-5a.28.28,0,0,1-.19-.31c0-.27-.14-.37-.32-.46s-.54-.24-.5-.63a.13.13,0,0,0-.15-.14c-.18,0-.26-.17-.4-.21h0a1.13,1.13,0,0,0-.91-.55c-.32,0-.42-.18-.35-.45a.65.65,0,0,0-.22-.68l-.08-.08,0-.11h0c0-.07,0-.12-.11-.12l0,0h0a.92.92,0,0,1-.49-.48,1,1,0,0,0-.62-.5h0s0-.06-.06-.06v0l-.22-.3a4.61,4.61,0,0,1-1.24-1.09,1.08,1.08,0,0,0-.43-.49l0,0,0,0a.19.19,0,0,0-.15-.16l0,0,0,0a1.24,1.24,0,0,0-.41-.41.05.05,0,0,0-.06,0,.23.23,0,0,0-.17-.16l0-.06c0-.07-.05-.08-.11-.09h0a3.83,3.83,0,0,0-1.24-.91h0l-.29-.47,0-.07s0,0-.05-.06h0a.67.67,0,0,0-.29-.46h0a.84.84,0,0,0-.53-.3h0a.33.33,0,0,0-.32-.18s0,0-.05,0-.09-.08-.16-.1h0a.22.22,0,0,0-.14-.16l-.14-.16h0c-.18-.28-.51-.37-.74-.6a.26.26,0,0,0-.32,0,2.21,2.21,0,0,1-1.38.2,1.22,1.22,0,0,0-1,.41v0a.79.79,0,0,0-.37.33h0c-.07,0-.12,0-.14.09h0a.38.38,0,0,0-.24.22h0a.19.19,0,0,0-.16.15l-.08.06h0v0h0v0l-.6.52h0a.69.69,0,0,0-.4.29h0l-1.17.76h0a2.72,2.72,0,0,0-.83.79l-.09,0h0v0h0v0a2,2,0,0,0-.71.65l-.07,0c-.28.13-.63.13-.82.44h0v0c-.27.08-.23.32-.27.52h0v0c-.14,0-.32,0-.4.18h0c-.3.06-.61.12-.73.47h0v0h0l0,0-.07.08a1.44,1.44,0,0,0-.48.47l-.06.07-.24.23h0a.41.41,0,0,0-.23.16h0a1.63,1.63,0,0,0-.85.53c-.19.25-.25.65-.7.62,0,0-.08.08-.08.12,0,.31-.21.4-.4.54a1,1,0,0,0-.41.53,2.36,2.36,0,0,0-1.32.86c-.16.22-.28.49-.64.45-.1,0-.17.08-.2.2s-.09.18-.18.16c-.3-.07-.41.13-.52.34s-.31.28-.49.4a5.42,5.42,0,0,0-1.35,1h0a.19.19,0,0,0-.16.14h0a.75.75,0,0,0-.4.3h0c-.1,0-.22.07-.26.19h0v0a.16.16,0,0,0-.16.12h0A31.94,31.94,0,0,1-43.28-.4c-.18.09-.41.08-.53.28,0,0,0,0,0,0a.27.27,0,0,0-.24.15s0,0-.07,0c-.19.07-.27.24-.37.4s-.19.3-.4.32a1.16,1.16,0,0,0-.78.49l-.09.07h0s0,0,0,0c-.71.49-1.36,1-2,1.58h0c-.23.19-.55.32-.52.7l-.09.09a1.66,1.66,0,0,0-1,.46h0a.21.21,0,0,0-.17.13h0a1.06,1.06,0,0,0-.46.38h0a.57.57,0,0,0-.29.24h0c-.73.67-1.52,1.25-2.3,1.85h0a.24.24,0,0,0-.22.15h0a3.17,3.17,0,0,0-.68.47h0a.15.15,0,0,0-.16.14h0a.83.83,0,0,0-.42.27v0a4.8,4.8,0,0,0-1.06.79h0A18.14,18.14,0,0,0-56.8,9.93l-.08.07c-.06,0-.13,0-.15.08a.19.19,0,0,0-.14.12h0c-.24.06-.52.13-.63.37a.64.64,0,0,1-.44.38,1.5,1.5,0,0,0-.39.22h0c-.11,0-.22,0-.23.16h0l-.31.62h0c-.4.18-.87.26-1.06.75a1.94,1.94,0,0,1-.82.88,8.24,8.24,0,0,0-1.36,1,8.08,8.08,0,0,1-1,.91l-.82.66c-.06,0-.12,0-.14.06h0a2.21,2.21,0,0,0-.57.49h0a.83.83,0,0,0-.39.3,3.63,3.63,0,0,1-1,.79,3.22,3.22,0,0,0-1,.94h0l-1.88,1.5h0a9.18,9.18,0,0,0-1.08.77,7.12,7.12,0,0,1-1,.92h0a.83.83,0,0,0-.33.34h0s-.08,0-.07.07h0a1.12,1.12,0,0,0-.37.38h0a.73.73,0,0,0-.42.27h0a1.18,1.18,0,0,0-.68.49h0a.18.18,0,0,0-.18.15.1.1,0,0,0-.12.09,1.84,1.84,0,0,0-.62.62c-.4.57-.35.91.17,1.18a1.92,1.92,0,0,1,.65.58,6.83,6.83,0,0,0,1.86,1.69,4.72,4.72,0,0,0,2.2,1,1.19,1.19,0,0,0,.46,0,3.45,3.45,0,0,0,1.56-1.32,1.23,1.23,0,0,1,.59-.51c.44-.21.94-.38,1.14-.9l.48-1.29h0a.67.67,0,0,0,.4-.6c0-.12,0-.29.17-.3s.18.12.23.25a1.54,1.54,0,0,0,.17.34.23.23,0,0,0,.23.11,1.5,1.5,0,0,0,.69-.82.33.33,0,0,1,.31-.37,3.29,3.29,0,0,0,.53-.1c.26-.09.54-.18.59-.53h0c.23-.08.43-.2.44-.48h0c.05,0,.06,0,.05-.06l0-.11.07-.13h0a.3.3,0,0,0,.19-.23l.19-.27,0,0h0v0c.16-.11.3-.23.52-.16a.21.21,0,0,0,.29-.17l0,0h0a.13.13,0,0,0,.09-.18l.19-.18c.14,0,.23-.09.32-.19h0a.13.13,0,0,0,.13-.11h0a.13.13,0,0,0,.11-.12h0a.3.3,0,0,0,.15-.18.82.82,0,0,0,.29-.74c0-.09,0-.24.06-.28a11.88,11.88,0,0,0,1-.73.27.27,0,0,1,.26,0c.54.22,1-.12.86-.71a1.4,1.4,0,0,1,.07-.61c.07-.24.27-.34.47-.19.36.28.45.1.5-.23a1.35,1.35,0,0,0,.06-.53l0-.15.39-.39a.45.45,0,0,0,.31-.1c.06,0,.12,0,.14-.07a.26.26,0,0,0,.24-.05q.16,0,.12-.18a0,0,0,0,0,0-.06v0h0v0a.4.4,0,0,0,.25-.21h0a.26.26,0,0,0,.25-.12h0c.12-.05.26-.06.34-.19h0a.48.48,0,0,0,.28-.34c0-.24.13-.36.41-.37a.24.24,0,0,0,.13-.44c-.18-.14-.09-.22,0-.33h0c.13-.09.2-.27.4-.25a1.59,1.59,0,0,0,1.13-.44c0-.26.37-.42.25-.74v-.15c.09-.17.18-.38.31,0s.19.23.32.05l.25-.33h0a.41.41,0,0,0,.43-.36c0-.06,0-.15.11-.13.38.12.4-.19.49-.41h0a3.35,3.35,0,0,0,.61-.75v0c.52,0,.71-.53,1.08-.77l0,0a1.45,1.45,0,0,0,.53-.62h0a.44.44,0,0,0,.23-.3h0a.46.46,0,0,0,.25-.28h0c.35-.32.86-.45,1.1-.9h0a.6.6,0,0,0,.34-.34h0l.08-.07h0a1,1,0,0,0,.4-.35h0a.69.69,0,0,0,.31-.3h0a.25.25,0,0,0,.18-.19h0l.07-.06h0A.41.41,0,0,0-43.16,5a15.69,15.69,0,0,1,1.51-1.21c.16-.13.26-.31.51-.26s.2-.07.2-.2,0-.2,0-.23c.27-.2.62-.6.82-.54.38.13.53,0,.75-.24s.27-.26.45-.05.37.29.42-.12c0,0,.06-.08.1-.11a3.22,3.22,0,0,0,.9-1.2.24.24,0,0,1,.21-.15c.31,0,.41-.21.5-.45s.07-.24.14-.27c.4-.15.3-.35.08-.58a.2.2,0,0,1,0-.28c.09-.12.21-.07.31,0s.34.22.52.32.4.12.44-.26l0-.16a5.68,5.68,0,0,1,.6-.93h0c.19,0,.47.35.53-.14v0s.06,0,0-.06h0v0c.19-.09.16-.26.15-.42s0-.46.32-.44a.36.36,0,0,0,.3-.26h0l.07-.06.09-.06c.32,0,.35-.26.37-.52s-.07-.39.18-.38.27.21.29.4a.53.53,0,0,0,.22.49h0c.14.2.28.35.5.09h0c.27-.17.19-.36,0-.56v-.32c.09-.09,0-.16,0-.2s-.15-.25-.08-.4h0c.24-.25.46-.53.85-.55,0,0,0,0,0-.06h0v0c.16,0,.27-.26.45-.13s0,.27,0,.41-.09.37.11.49.33,0,.45-.11a5.36,5.36,0,0,0,.64-.58,4.8,4.8,0,0,0,.82-1.29c.05-.19,0-.24-.19-.22-.34,0-.4-.14-.33-.42h0a1.77,1.77,0,0,1,.94-.06c.4.08.46,0,.45-.35s0-.51.26-.65h0l0,0c.2-.05.45.07.62-.15a6.85,6.85,0,0,0,.81-1.18,1.51,1.51,0,0,1,.69-.62,1.12,1.12,0,0,0,.72-.73c0-.12.1-.21.24-.2s.16.1.2.2a.57.57,0,0,0,.73.37,2.82,2.82,0,0,1,1.44-.1,2.93,2.93,0,0,1,2,.77c.2.23.38.49.61.71.58.54,1.4.82,1.76,1.6,0,.08.17.11.25.18.38.35.91.56,1,1.16a.86.86,0,0,0,.38.43c.31.21.62.44.93.67h0c.07.18.12.37.33.45a3.49,3.49,0,0,0,.84,1c.39.4.9.67,1.27,1.09.75.86,1.63,1.6,2.37,2.48A.35.35,0,0,0-9.54,0l.31.15c.09.12.19.24.29.35.74.77,1.47,1.55,2.23,2.3S-5.11,4.25-4.3,5l.35.49h0c.19.37.57.51.88.74h0a.37.37,0,0,0,.21.18h0c0,.06.05.11.11.12h0a.72.72,0,0,0,.36.33h0c0,.08.08.14.16.16h0A.43.43,0,0,0-2,7.22a.39.39,0,0,0,.23.24.6.6,0,0,0,.29.32h0c.07.23.28.33.44.48h0a.76.76,0,0,0,.28.31v0h0s0,.07.06.07h0c.17.27.32.57.69.62H0l.49.42h0c.11.16.24.3.34.46s.19.22.09.35-.26.06-.38,0A24.65,24.65,0,0,0-3.34,9.16c-.37-.11-.75-.39-1.16-.06,0,0-.2,0-.29,0a1.3,1.3,0,0,1-.65-.51.49.49,0,0,0-.86-.11c-.1.1-.23.17-.34.08a2.53,2.53,0,0,0-.56-.25,2.38,2.38,0,0,0-2-.33.42.42,0,0,1-.27,0c-1-.24-1.85-.66-2.77-1-.76-.28-1.49-.65-2.29-.86a9.76,9.76,0,0,1-2.76-.66.39.39,0,0,0-.26,0c-.59.12-1.13-.17-1.71-.15A8.71,8.71,0,0,1-21,5a8.7,8.7,0,0,0-1.77,0,2.5,2.5,0,0,0-1,.08h-.39a9.08,9.08,0,0,0-1.28,0A2.24,2.24,0,0,0-27,5.32c-.15.1-.32.06-.47.09a.57.57,0,0,0-.53.14h-.25s0,0-.05,0c-.6,0-1.16.37-1.78.17a.08.08,0,0,0-.06,0c-.18.31-.43.2-.68.13a.48.48,0,0,0-.37,0l-.74.37h0c-.19.1-.44.09-.58.29l-.12,0a3.5,3.5,0,0,1-.66.09c-.44,0-.72.46-1.17.57-.11,0-.21.14-.37.09s-.35-.17-.44,0-.23.32-.46.16c0,0-.09,0-.14,0a2,2,0,0,1-1.07.33.58.58,0,0,0-.61.31l-.16,0-.46,0c-.41,0-.83-.07-1,.41-.06.13-.17.06-.27.06-.29,0-.55.29-.48.51s-.07.34-.31.3-.45-.08-.6.17h0a.73.73,0,0,0-.39.3h0a.17.17,0,0,0-.15.15Zm37.91,51a.46.46,0,0,1-.24-.35c-.06-.34-.14-.67-.23-1-.22-.94-.45-1.89-.68-2.84-.3-1.26-.59-2.52-.88-3.78-.16-.66-.36-1.31-.47-2-.06-.34-.18-.45-.52-.45-1.89,0-3.78,0-5.67,0-.27,0-.41.09-.38.38,0,.1,0,.21,0,.31,0,5.16,0,10.33,0,15.49,0,.26.08.39.35.39h2.85c.2,0,.28-.09.28-.28s0-.25,0-.38c0-3.86,0-7.71,0-11.56a1.34,1.34,0,0,1,0-.2c0-.07,0-.16.11-.17s.14,0,.18.12a1.25,1.25,0,0,1,.09.25c.34,1.39.67,2.79,1,4.18s.77,3,1.15,4.54c.27,1.07.54,2.14.8,3.21a.31.31,0,0,0,.34.28h3.2c.19,0,.28-.06.32-.25.09-.37.19-.74.29-1.11.29-1.11.61-2.2.85-3.31s.51-2.07.75-3.1c.17-.71.35-1.42.52-2.12s.42-1.67.64-2.5c0-.1.06-.26.21-.23s.08.18.09.27a1.2,1.2,0,0,1,0,.19c0,2.1,0,4.19,0,6.29,0,1.81,0,3.62,0,5.43,0,.35.1.46.47.45,1,0,2,0,3,0,.29,0,.41-.1.38-.38,0-.11,0-.21,0-.31V52.1c0-.3,0-.59,0-.88s-.07-.44-.41-.44c-1.88,0-3.75,0-5.63,0-.35,0-.47.14-.52.46-.13.7-.27,1.41-.43,2.11-.37,1.7-.73,3.41-1.13,5.1A26.5,26.5,0,0,1-3.55,61.19ZM-56,50.82v0c-1.13,0-2.26,0-3.39,0-.34,0-.37.16-.37.42q0,7.89,0,15.76c0,.31.1.4.4.4q2.72,0,5.43,0a13.38,13.38,0,0,0,4.17-.57,6.45,6.45,0,0,0,3.09-2A8.2,8.2,0,0,0-45,59.88a11.48,11.48,0,0,0-.13-2.68,6.7,6.7,0,0,0-3.7-5.43,10.28,10.28,0,0,0-3.85-.94C-53.75,50.75-54.87,50.82-56,50.82Zm33.34,0h0c-.71,0-1.42,0-2.12,0a.54.54,0,0,0-.62.47c-.39,1.32-.9,2.59-1.33,3.89s-1,2.67-1.42,4c-.37,1.05-.72,2.1-1.09,3.15-.55,1.57-1.11,3.14-1.66,4.7-.09.24-.05.36.23.36,1.15,0,2.29,0,3.43,0a.36.36,0,0,0,.4-.28c.25-.81.54-1.6.76-2.41.12-.41.32-.6.72-.6,1.71,0,3.42,0,5.12,0a.46.46,0,0,1,.46.38c.26.87.55,1.73.83,2.6.07.23.23.27.44.27,1.3,0,2.59,0,3.89,0,.34,0,.32-.18.25-.39s-.23-.54-.33-.82c-.42-1.19-.84-2.39-1.27-3.58-.56-1.57-1.13-3.13-1.69-4.69L-20,51.16a.48.48,0,0,0-.53-.38C-21.26,50.81-22,50.79-22.65,50.79ZM-43.52,59h0V66.4c0,.95,0,.95.95.95h9.9c.26,0,.44,0,.42-.34-.08-.86,0-1.72,0-2.58,0-.28-.12-.35-.38-.35-2.13,0-4.26,0-6.39,0-.36,0-.51-.1-.51-.48,0-.86,0-1.72,0-2.58,0-.54,0-.54.52-.54,1.93,0,3.86,0,5.78,0,.35,0,.44-.11.43-.44,0-.75,0-1.49,0-2.24,0-.35-.09-.44-.42-.43H-39c-.36,0-.5-.12-.49-.5,0-.77,0-1.54,0-2.31s0-.66.64-.66h6c.21,0,.36,0,.36-.28,0-.86,0-1.72,0-2.58,0-.21-.07-.31-.32-.31H-43.11c-.3,0-.41.09-.41.39Zm13.19,32.14H-64.89c-.82,0-.82,0-.81.8,0,.65,0,.65.68.65H4.81a.25.25,0,0,0,.27-.26v-1c0-.18-.13-.2-.27-.2s-.48,0-.73,0ZM-61.59,59.07h0c0-2.63,0-5.26,0-7.89,0-.29-.09-.39-.38-.39h-3.38c-.25,0-.39.11-.35.34a5,5,0,0,1,0,.77q0,7.52,0,15c0,.31.07.45.4.45,1.11,0,2.23,0,3.35,0,.28,0,.38-.11.38-.39C-61.59,64.34-61.59,61.7-61.59,59.07Zm34.2,28.63c-.05-.14-.09-.22-.12-.3-.29-.88-.6-1.77-.88-2.66-.12-.37-.41-.21-.63-.24s-.22.08-.22.24c0,1.11,0,2.23,0,3.35,0,.17.07.21.23.22s.27-.09.27-.29c0-.89,0-1.78,0-2.66.37.86.68,1.74,1,2.62.06.17.08.33.34.33s.28-.18.33-.34c.18-.48.33-1,.51-1.45a7.54,7.54,0,0,1,.47-1.2V88c0,.18,0,.33.24.33s.26-.13.26-.32c0-1,0-2,0-3.08,0-.35-.1-.44-.44-.42s-.27.13-.33.3C-26.7,85.74-27,86.69-27.39,87.7ZM-51.24,79c.13,0,.12.11.14.17l.87,2.54c0,.16.11.25.32.25s.25-.09.3-.25c.26-.78.54-1.55.82-2.32a.52.52,0,0,1,.18-.33c0,.9,0,1.76,0,2.62,0,.18,0,.28.25.28s.27-.08.27-.29c0-1.05,0-2.11,0-3.16,0-.13.1-.35-.16-.35s-.49-.11-.59.24-.31.9-.47,1.34-.36,1-.57,1.62c-.06-.18-.1-.27-.13-.37-.29-.87-.59-1.74-.87-2.61-.13-.38-.43-.19-.65-.21s-.17.2-.17.33c0,1,0,2.1,0,3.15,0,.18,0,.32.25.31s.23-.16.23-.32Zm28.62,7.28a.7.7,0,0,1,.06-.09.85.85,0,0,0,.33-1,1,1,0,0,0-.9-.67c-.5-.06-1,0-1.5,0-.18,0-.25.06-.25.25,0,1.1,0,2.2,0,3.31,0,.19.07.25.25.25.51,0,1,0,1.54,0a1.06,1.06,0,0,0,.89-.45C-21.82,87.27-22,86.74-22.62,86.29Zm6.68-.82.07,0,.29.44c.49.74,1,1.47,1.47,2.22a.47.47,0,0,0,.52.2c.27,0,.16-.26.16-.4,0-1,0-2.09,0-3.13,0-.19-.05-.28-.26-.28s-.26.1-.25.29c0,.34,0,.69,0,1v1.62l-.25-.34c-.53-.8-1.08-1.59-1.6-2.4a.44.44,0,0,0-.52-.19c-.23,0-.12.25-.12.39,0,1,0,2,0,3,0,.16-.08.37.23.37s.26-.17.26-.35C-15.95,87.13-15.94,86.3-15.94,85.47ZM-60.58,74.79c-.12-.17-.18-.24-.22-.31-.54-.8-1.08-1.59-1.59-2.4a.48.48,0,0,0-.55-.23c-.26,0-.15.26-.15.4,0,1,0,2,0,3.08,0,.19,0,.3.27.31s.24-.14.24-.32V73.09c0-.09-.06-.21.09-.28s.09.12.13.19c.54.82,1.1,1.63,1.63,2.46.15.23.36.18.54.16s.11-.23.11-.35V72.15c0-.18,0-.31-.24-.32s-.25.14-.25.31Zm44.82-.86.15-.08c.57-.2.86-.58.8-1.06a1,1,0,0,0-1.07-.93c-.57,0-1.13,0-1.7,0-.18,0-.24,0-.24.23,0,1.11,0,2.21,0,3.32,0,.18,0,.25.23.24s.28,0,.27-.25,0-.77,0-1.15c0-.09,0-.2.09-.26a1.37,1.37,0,0,1,1.2.31,7.66,7.66,0,0,1,.63,1,.64.64,0,0,0,.86.34A6.41,6.41,0,0,0-15.76,73.93Zm-18.09,8a6.91,6.91,0,0,0-1.22-1.66,1,1,0,0,1,.16-.07,1,1,0,0,0,.78-1.12c-.07-.53-.39-.83-1-.87s-1.16,0-1.73,0c-.18,0-.25,0-.24.24,0,1.11,0,2.21,0,3.31,0,.21.08.27.27.26s.27-.06.26-.27c0-.38,0-.77,0-1.15,0-.21.06-.24.25-.26a1.16,1.16,0,0,1,1.27.65c.13.24.31.44.43.69S-34.23,82-33.85,81.92ZM-16.22,80c-.19,0-.39,0-.58,0s-.24.06-.24.24.1.23.26.22a2.36,2.36,0,0,1,.46,0c.12,0,.33-.09.34.12s.12.47-.08.65a1.49,1.49,0,0,1-2.23-.44,1.93,1.93,0,0,1,.06-1.61,1.2,1.2,0,0,1,1.13-.66,1,1,0,0,1,1,.59c.1.25.25.23.42.16s.07-.26,0-.39c-.34-1-2.06-1.07-2.81-.26a2.27,2.27,0,0,0-.24,2.52A2,2,0,0,0-16.6,82c.85-.15,1.16-.47,1.16-1.19S-15.43,80-16.22,80ZM-46.67,86.4c0,.54,0,1.08,0,1.62,0,.18,0,.3.25.29.51,0,1,0,1.54,0a1.32,1.32,0,0,0,1.21-1,2.62,2.62,0,0,0,.07-1.59A1.4,1.4,0,0,0-45,84.53c-.46,0-.92,0-1.38,0-.22,0-.29.06-.29.28C-46.66,85.32-46.67,85.86-46.67,86.4ZM-.41,73.69c-.19,0-.38,0-.57,0s-.24.07-.24.25.07.22.23.21a2.78,2.78,0,0,1,.5,0c.12,0,.33-.1.34.11s.13.5-.08.66a1.46,1.46,0,0,1-2.28-.53,2,2,0,0,1,0-1.43,1.18,1.18,0,0,1,1.08-.74,1,1,0,0,1,1.16.62c.09.27.26.14.4.11s.08-.21.05-.31c-.37-1.06-2.11-1.12-2.85-.33a2.3,2.3,0,0,0-.26,2.49,1.92,1.92,0,0,0,2,.88,2.16,2.16,0,0,0,1.18-.53c.19-.18.07-.46.07-.7C.39,73.69.39,73.69-.41,73.69Zm-35.18,0h0c0,.54,0,1.08,0,1.62,0,.18,0,.29.24.28.5,0,1,0,1.5,0a1.33,1.33,0,0,0,1.24-.89,2.58,2.58,0,0,0,.14-1.48,1.49,1.49,0,0,0-1.6-1.39c-.41,0-.82,0-1.23,0s-.29.1-.29.32C-35.58,72.68-35.59,73.2-35.59,73.73ZM-3.42,86.39c0,.55,0,1.1,0,1.66,0,.16,0,.26.23.26.78,0,1.57,0,2.35,0,.19,0,.24-.07.24-.25s-.08-.22-.24-.21c-.37,0-.74,0-1.11,0-1,0-1,0-1-1,0-.24.07-.31.3-.3h1.54c.18,0,.25,0,.25-.24s-.08-.24-.25-.24c-.34,0-.67,0-1,0-.87,0-.86,0-.83-.88,0-.21.07-.26.26-.26.56,0,1.11,0,1.66,0,.15,0,.31,0,.31-.21S-.82,84.5-1,84.5c-.7,0-1.41,0-2.11,0-.26,0-.3.1-.3.32C-3.41,85.34-3.42,85.86-3.42,86.39ZM-21.64,73.72c0,.53,0,1.06,0,1.58,0,.24,0,.35.31.33s.82,0,1.23,0a1.46,1.46,0,0,0,1.53-1.19,2.75,2.75,0,0,0,.06-1,1.53,1.53,0,0,0-1.65-1.55c-.39,0-.79,0-1.19,0-.25,0-.3.09-.29.32C-21.63,72.67-21.64,73.2-21.64,73.72Zm-25.68,6.36c0,.54,0,1.08,0,1.61,0,.18,0,.28.24.28.78,0,1.57,0,2.35,0,.14,0,.24,0,.24-.21s0-.26-.23-.26h-1.12c-1,0-1,0-1-1,0-.2.06-.26.26-.26.53,0,1,0,1.58,0,.17,0,.25,0,.25-.23s-.09-.24-.26-.23h-1c-.87,0-.86,0-.83-.87,0-.22.07-.29.29-.28h1.69c.18,0,.25,0,.25-.24s-.06-.24-.25-.24c-.74,0-1.48,0-2.23,0-.2,0-.27.06-.26.26C-47.31,79-47.32,79.53-47.32,80.08Zm14,0h0c0,.54,0,1.08,0,1.62,0,.22,0,.29.28.29q1.15,0,2.31,0c.16,0,.26,0,.25-.23s-.05-.24-.25-.24c-.37,0-.74,0-1.11,0-1,0-1,0-1-1,0-.25.1-.29.32-.29.51,0,1,0,1.54,0,.14,0,.24,0,.23-.2s0-.27-.23-.26-.66,0-1,0c-.89,0-.89,0-.86-.89,0-.2.07-.26.27-.26h1.69c.16,0,.27,0,.27-.22s-.08-.26-.27-.26c-.73,0-1.47,0-2.2,0-.22,0-.29.07-.28.29C-33.35,79-33.36,79.53-33.36,80.06Zm-25.85,8.25c.39,0,.79,0,1.19,0,.19,0,.24-.07.24-.25s-.07-.22-.23-.21c-.38,0-.75,0-1.12,0-1,0-.95,0-.95-1,0-.28.11-.32.34-.31.5,0,1,0,1.5,0,.16,0,.24,0,.23-.21s0-.27-.22-.26-.7,0-1,0c-.82,0-.81,0-.81-.83,0-.26.09-.32.33-.31.53,0,1.06,0,1.58,0,.16,0,.3,0,.3-.21s-.12-.26-.31-.26c-.7,0-1.41,0-2.12,0-.25,0-.29.1-.28.32,0,1.06,0,2.13,0,3.19,0,.28.1.32.34.31S-59.56,88.31-59.21,88.31Zm39.33-1.93V88c0,.19,0,.28.24.28.76,0,1.52,0,2.27,0,.18,0,.29,0,.29-.25s-.16-.21-.31-.21h-1c-1,0-1,0-.95-1,0-.23.08-.29.29-.28.5,0,1,0,1.5,0,.18,0,.28,0,.28-.24s-.13-.23-.29-.22h-1c-.85,0-.84,0-.81-.86,0-.21.07-.29.29-.28h1.65c.16,0,.27,0,.27-.22s0-.27-.26-.26c-.73,0-1.47,0-2.2,0-.2,0-.26.07-.26.27C-19.87,85.3-19.88,85.84-19.88,86.38ZM-38,86.43a1.79,1.79,0,0,0-1.77-2,1.81,1.81,0,0,0-1.85,2,1.81,1.81,0,0,0,1.81,1.93A1.78,1.78,0,0,0-38,86.43ZM-26.42,80a1.79,1.79,0,0,0-1.85-1.92A1.85,1.85,0,0,0-30,80.18,1.8,1.8,0,0,0-28.17,82,1.79,1.79,0,0,0-26.42,80Zm3.38.07A1.76,1.76,0,0,0-21.23,82a1.8,1.8,0,0,0,1.81-2,1.84,1.84,0,0,0-1.81-2A1.79,1.79,0,0,0-23,80.09Zm10.61-4.4a1.8,1.8,0,0,0,1.85-2,1.84,1.84,0,0,0-1.83-2,1.85,1.85,0,0,0-1.83,2A1.81,1.81,0,0,0-12.43,75.69Zm-28.82-2a1.93,1.93,0,0,0,.8,1.66A1.85,1.85,0,0,0-38,75a2.23,2.23,0,0,0-.27-2.84,1.78,1.78,0,0,0-2-.22A1.81,1.81,0,0,0-41.25,73.74Zm34,0a1.79,1.79,0,0,0,1.76,2,1.77,1.77,0,0,0,1.87-1.88,1.82,1.82,0,0,0-1.77-2A1.8,1.8,0,0,0-7.24,73.73ZM-35.95,84.44a1.8,1.8,0,0,0-1,.27.94.94,0,0,0,.06,1.56,2.19,2.19,0,0,0,.6.23,9.7,9.7,0,0,1,1,.28.53.53,0,0,1,.12,1,1.18,1.18,0,0,1-1.73-.5c-.09-.26-.25-.18-.39-.16s-.14.17-.11.29a1.17,1.17,0,0,0,.93.92,1.74,1.74,0,0,0,1.7-.29,1,1,0,0,0-.3-1.68c-.43-.19-.91-.24-1.36-.39a.46.46,0,0,1-.37-.44A.52.52,0,0,1-36.6,85a1,1,0,0,1,1.46.48c.1.24.27.08.39.08s.1-.15.08-.25A1.23,1.23,0,0,0-35.95,84.44ZM1.5,88.38l.37,0a1.18,1.18,0,0,0,1-1c0-.49-.24-.85-.83-1.05-.38-.12-.77-.2-1.15-.32-.2-.06-.37-.16-.38-.42A.51.51,0,0,1,.83,85a1,1,0,0,1,1.42.44c.1.24.27.15.41.12s.08-.19,0-.29A1,1,0,0,0,2,84.56,1.93,1.93,0,0,0,.9,84.5a1.07,1.07,0,0,0-.88,1c0,.44.28.76.8.94a10.61,10.61,0,0,1,1.25.38.51.51,0,0,1,.05.94A1.16,1.16,0,0,1,.41,87.2c-.09-.26-.25-.14-.37-.14s-.15.15-.12.29A1.46,1.46,0,0,0,1.5,88.38Zm-42.12-8.32c0,.55,0,1.1,0,1.65,0,.21.06.26.26.26q1.15,0,2.31,0c.16,0,.23,0,.23-.21s0-.27-.23-.26c-.37,0-.74,0-1.11,0-1,0-1,0-1-1,0-.22.07-.29.29-.29.51,0,1,0,1.54,0,.17,0,.25,0,.25-.23s-.08-.24-.25-.23c-.34,0-.67,0-1,0-.85,0-.84,0-.83-.85,0-.23.06-.31.31-.3.55,0,1.1,0,1.65,0,.16,0,.27,0,.26-.21s-.08-.26-.27-.26c-.72,0-1.44,0-2.16,0-.26,0-.29.1-.28.32C-40.61,79-40.62,79.53-40.62,80.06Zm-15.19,4.38-.24,0c-.66.09-1,.42-1.09.94s.24.86.91,1.07c.35.11.72.18,1.06.31a.51.51,0,0,1,.23.88,1.21,1.21,0,0,1-1.8-.37c-.08-.25-.21-.29-.41-.22s-.1.28-.06.42a1.47,1.47,0,0,0,1.59.88,1.28,1.28,0,0,0,1.33-1c.06-.59-.27-.94-1.08-1.17-.31-.08-.62-.16-.93-.26a.41.41,0,0,1-.35-.43.53.53,0,0,1,.37-.49,1,1,0,0,1,1.36.5c.11.23.26.09.39.09s.11-.16.09-.25A1.28,1.28,0,0,0-55.81,84.44Zm-2-8.75a1.42,1.42,0,0,0,.72-.14,1.06,1.06,0,0,0,.67-1,1,1,0,0,0-.68-.93c-.44-.15-.88-.25-1.32-.38a.45.45,0,0,1-.37-.4.48.48,0,0,1,.22-.46,1,1,0,0,1,1.5.41c.11.25.29.12.42.11s.09-.18.07-.27a1,1,0,0,0-.54-.67,1.83,1.83,0,0,0-1.34-.13,1.08,1.08,0,0,0-.84.94,1,1,0,0,0,.75,1c.19.07.39.11.59.17a4.32,4.32,0,0,1,.72.23.52.52,0,0,1,.16.86,1.21,1.21,0,0,1-1.8-.36c-.09-.25-.21-.31-.41-.24s-.1.29-.06.42C-59.21,75.39-58.69,75.69-57.84,75.69Zm26.08-2h0c0,.56,0,1.11,0,1.66,0,.19,0,.27.24.27h2.35c.16,0,.23,0,.23-.22s-.06-.24-.24-.24c-.39,0-.77,0-1.16,0-1,0-1,0-.93-1,0-.25.09-.3.31-.29h1.54c.18,0,.25,0,.26-.24s-.08-.23-.25-.23h-1c-.87,0-.87,0-.82-.89,0-.21.07-.27.27-.26.56,0,1.13,0,1.69,0,.14,0,.27,0,.27-.2s-.07-.27-.26-.26c-.73,0-1.46,0-2.19,0-.24,0-.28.09-.27.3C-31.75,72.65-31.76,73.18-31.76,73.7Zm7.88.06V72.1c0-.17,0-.27-.24-.27s-.27.08-.27.27,0,.62,0,.92,0,.4-.35.37a10.76,10.76,0,0,0-1.27,0c-.25,0-.35,0-.33-.31s0-.64,0-1-.07-.28-.29-.29-.24.11-.24.29c0,1.08,0,2.15,0,3.23,0,.18,0,.29.24.28s.3,0,.29-.28c0-.42,0-.85,0-1.27,0-.18,0-.25.23-.24h1.47c.18,0,.24,0,.24.24,0,.43,0,.87,0,1.31,0,.22.11.23.28.24s.22-.09.22-.25ZM-47.47,86h0c0-.39,0-.77,0-1.16,0-.16,0-.3-.23-.3s-.27.11-.27.3q0,1,0,2c0,.63-.2,1-.62,1.06a.94.94,0,0,1-1.31-1c0-.7,0-1.39,0-2.08,0-.2-.06-.28-.26-.28s-.27,0-.27.24c0,.81,0,1.62,0,2.42a1.29,1.29,0,0,0,1.52,1.22,1.28,1.28,0,0,0,1.4-1.3C-47.46,86.69-47.47,86.32-47.47,86ZM-45,73.27h0c0-.34,0-.67,0-1,0-.16.16-.42-.23-.43s-.24.29-.25.46c0,.7,0,1.41,0,2.11s-.33.85-1,.83a.8.8,0,0,1-.88-.89c0-.76,0-1.51,0-2.27,0-.19-.09-.24-.26-.23s-.27,0-.27.21c0,.82,0,1.65,0,2.47A1.14,1.14,0,0,0-47,75.66a2.39,2.39,0,0,0,1,0,1.18,1.18,0,0,0,1-1.12C-45,74.11-45,73.69-45,73.27ZM-8.49,84.5c-.15,0-.29,0-.36.16-.44,1.14-.88,2.29-1.31,3.43,0,.08-.1.2.05.21s.41.07.49-.23.15-.71.37-.85.64,0,1-.06a1.76,1.76,0,0,0,.23,0,.34.34,0,0,1,.44.3c.05.22.16.43.23.64s.35.24.52.19,0-.24,0-.34c-.42-1.07-.86-2.13-1.28-3.2C-8.22,84.56-8.3,84.47-8.49,84.5ZM-13.7,82c.24,0,.48.14.61-.19s.11-.75.38-.89a2.44,2.44,0,0,1,1,0,.91.91,0,0,0,.23,0c.21,0,.32.07.38.28s.18.48.26.72.34.16.49.13.05-.2,0-.29c-.43-1.07-.86-2.13-1.28-3.2a.37.37,0,0,0-.41-.3c-.25,0-.3.13-.37.3C-12.81,79.61-13.25,80.75-13.7,82Zm-17.7,5.2c.8,0,.8,0,1.09.75l.09.25c.11.25.35.17.51.13s0-.22,0-.32c-.42-1.07-.86-2.13-1.28-3.2a.36.36,0,0,0-.39-.28.34.34,0,0,0-.36.26c-.4,1.09-.82,2.17-1.24,3.26,0,.09-.18.23,0,.28s.34.09.45-.1.07-.22.11-.32C-32.17,87.16-32.17,87.16-31.4,87.16ZM5.31,75.62c.25,0,.31,0,.21-.27-.45-1.1-.9-2.2-1.33-3.31-.08-.22-.23-.19-.39-.2s-.27,0-.33.23c-.41,1.09-.83,2.17-1.24,3.27,0,.08-.18.24,0,.27s.38.13.47-.12A2.18,2.18,0,0,0,2.87,75c.07-.42.32-.48.72-.52.75-.06,1.27.09,1.38.93A.24.24,0,0,0,5.31,75.62Zm-57.46,11v-.77c0-.89,0-.89.9-.89h.08c.16,0,.26,0,.26-.22s-.06-.27-.26-.27c-.83,0-1.65,0-2.47,0-.19,0-.28,0-.28.25s.14.23.3.22a4.86,4.86,0,0,0,.54,0c.31,0,.42.06.41.39,0,.9,0,1.8,0,2.7,0,.22.1.25.29.25s.24-.06.24-.25C-52.16,87.59-52.15,87.11-52.15,86.64ZM-50.2,74h0v1.31c0,.18,0,.34.26.35s.27-.15.27-.34c0-.87,0-1.74,0-2.62,0-.28,0-.43.38-.39a4.14,4.14,0,0,0,.61,0c.16,0,.27,0,.26-.22s-.06-.25-.24-.24h-2.51c-.16,0-.26,0-.26.23s.11.24.29.23.38,0,.57,0,.41,0,.39.37S-50.2,73.54-50.2,74Zm42.8,6c-.32-.5-.64-.94-.91-1.42a.59.59,0,0,0-.81-.29c.2.3.37.6.58.87a3.13,3.13,0,0,1,.85,2.59c0,.2,0,.29.27.3s.26-.12.25-.31,0-.62,0-.93A1,1,0,0,1-7,80c.44-.59.84-1.21,1.27-1.83a.61.61,0,0,0-.81.32C-6.76,79-7.07,79.43-7.4,79.93Zm-3.77,6.75v-.77c0-.3-.09-.68.05-.86s.58,0,.88-.08h.08c.19,0,.23-.06.23-.24s-.08-.23-.25-.23h-2.51c-.18,0-.24.07-.24.25s.08.25.26.24.44,0,.65,0,.35.07.34.34c0,.9,0,1.8,0,2.7,0,.21,0,.31.28.3s.25-.1.25-.28C-11.17,87.58-11.17,87.13-11.17,86.68ZM-54.33,74c0-.47,0-1,0-1.42,0-.2.05-.28.26-.26s.48,0,.73,0,.26,0,.26-.22-.06-.24-.25-.24h-2.5c-.17,0-.25,0-.25.24s.1.23.26.22.44,0,.65,0,.35.08.34.34c0,.91,0,1.82,0,2.73,0,.21.07.26.26.26s.27-.06.26-.26C-54.35,74.91-54.34,74.45-54.33,74Zm11.95,6.35h0c0-.45,0-.9,0-1.35,0-.25.05-.38.33-.35s.44,0,.66,0,.26,0,.25-.22,0-.26-.23-.26c-.83,0-1.67,0-2.5,0-.19,0-.24.07-.25.25s.09.24.26.23a5.61,5.61,0,0,0,.58,0c.36-.06.42.1.41.43,0,.88,0,1.77,0,2.66,0,.21.08.26.28.25s.23-.08.23-.25C-42.39,81.26-42.38,80.79-42.38,80.33ZM-43.23,74c0,.44,0,.89,0,1.34,0,.2,0,.34.27.34s.26-.16.26-.35c0-.89,0-1.79,0-2.69,0-.23.05-.33.3-.3s.46,0,.69,0,.26,0,.26-.22-.1-.24-.28-.24H-44.2c-.19,0-.27,0-.27.25s.11.22.26.21a5.61,5.61,0,0,0,.58,0c.31,0,.43,0,.41.39S-43.23,73.53-43.23,74Zm17.93,5.9h0V78.48c0-.18,0-.32-.26-.32s-.25.12-.25.31c0,1.06,0,2.13,0,3.19,0,.28.11.31.34.31h1.73c.15,0,.29,0,.3-.21s-.15-.24-.32-.24c-.43,0-.85,0-1.27,0-.2,0-.27-.06-.26-.26C-25.29,80.79-25.3,80.33-25.3,79.86ZM-6.36,86.4c0,.53,0,1.07,0,1.61,0,.2,0,.3.27.3.62,0,1.23,0,1.85,0,.17,0,.26,0,.26-.23s-.08-.24-.26-.23c-.41,0-.82,0-1.23,0s-.4,0-.39-.37c0-.89,0-1.79,0-2.69,0-.16,0-.3-.22-.3s-.3.07-.29.29C-6.35,85.32-6.36,85.86-6.36,86.4ZM-10,73.73c0,.54,0,1.08,0,1.62,0,.22.06.28.28.28h1.81c.15,0,.3,0,.3-.22s-.11-.24-.29-.24c-.41,0-.82,0-1.23,0s-.35-.06-.34-.34c0-.91,0-1.82,0-2.73,0-.18,0-.28-.25-.28s-.3.06-.29.28C-10,72.65-10,73.19-10,73.73ZM-20.75,86.45c0-.56,0-1.11,0-1.66,0-.21-.06-.3-.28-.3s-.25.11-.25.29c0,1.08,0,2.16,0,3.23,0,.17,0,.31.24.3s.29-.06.29-.29C-20.76,87.5-20.75,87-20.75,86.45Zm-22-.06c0,.54,0,1.08,0,1.62,0,.19,0,.31.26.3s.25-.1.25-.29c0-1.07,0-2.15,0-3.22,0-.2,0-.31-.27-.31s-.24.16-.23.33ZM1.69,73.76c0-.55,0-1.1,0-1.65,0-.22-.07-.27-.28-.28s-.24.1-.24.28c0,1.08,0,2.17,0,3.26,0,.2.06.27.26.26s.28,0,.27-.25C1.68,74.84,1.69,74.3,1.69,73.76Zm-24.15,0h0V72.14c0-.19,0-.31-.26-.31s-.26.11-.26.3v3.24c0,.2.05.26.25.26s.28,0,.28-.26C-22.46,74.84-22.46,74.3-22.46,73.76Zm-42,0c0,.55,0,1.11,0,1.66,0,.21.07.25.26.25s.28,0,.27-.26c0-1.09,0-2.17,0-3.26,0-.23-.1-.27-.3-.28s-.24.11-.24.28Zm12.42,0V72.15c0-.17,0-.32-.24-.32s-.26.12-.26.3c0,1.07,0,2.13,0,3.19,0,.17,0,.32.24.31s.25-.1.25-.29C-52,74.8-52,74.26-52,73.72Zm37.86,6.33V78.44c0-.18,0-.28-.25-.28s-.25.09-.24.27c0,1.09,0,2.18,0,3.27,0,.18,0,.27.25.27s.26-.08.25-.27ZM6.63,75.49c0-.13.09-.33-.13-.38s-.31-.09-.38,0-.09.39,0,.43c.42.16.14.34,0,.51s-.15.11-.06.22.19,0,.26,0A1.06,1.06,0,0,0,6.63,75.49Zm-53.86-50.8s.07,0,.08,0a1.13,1.13,0,0,1,.5-.38c.19-.06-.11-.11-.12-.21s0-.2-.1-.09-.31.25-.44.4A.18.18,0,0,0-47.23,24.69Z"/><path class="cls-6" d="M-33.14,11.93c.24.05.4-.11.55-.22a3.8,3.8,0,0,1,1.27-.56,3.08,3.08,0,0,0,.52-.24c.16-.1.3-.18.49-.08a.18.18,0,0,0,.22,0c.34-.43.89-.45,1.32-.72a.2.2,0,0,1,.14-.05c.38.13.6-.06.78-.36.06-.1.19-.05.28-.05.56,0,1.11,0,1.66,0a2.75,2.75,0,0,0,1.13-.26c.33-.13.6.13.9.17s.43.17.62-.09c.06-.09.18,0,.28,0a7.41,7.41,0,0,0,1.33.06c.59,0,1.18,0,1.76,0a2.17,2.17,0,0,1,1.29.17c.31.19.69.2,1,.48-.13-.44.1-.49.39-.49H-5.69a2.32,2.32,0,0,1,.53.05,1.86,1.86,0,0,0,.91,0,1,1,0,0,1,.75.07,1.23,1.23,0,0,0,.6.07c.12,0,.21,0,.2-.18s-.07-.21-.19-.2A1.46,1.46,0,0,1-3.7,9.2a.3.3,0,0,0-.26,0A1.12,1.12,0,0,1-5.5,8.75a.56.56,0,0,0-.69-.18c-.61.31-1.07-.05-1.53-.33a.88.88,0,0,0-.44-.17H-9.59a2.26,2.26,0,0,1-1.11-.32,7.6,7.6,0,0,0-1.43-.61,14.36,14.36,0,0,1-2-.77,4.6,4.6,0,0,0-1.41-.29c-.43,0-.86-.31-1.31-.12h0c-.36-.49-1-.25-1.41-.46a.83.83,0,0,0-.38,0c-.53,0-1.06-.11-1.6,0s-.8-.24-1.25-.25c-.62,0-1.24,0-1.86-.05-.13,0-.28.05-.4-.06a2.5,2.5,0,0,1,1-.08A8.7,8.7,0,0,1-21,5a8.71,8.71,0,0,0,1.75.21c.58,0,1.12.27,1.71.15a.39.39,0,0,1,.26,0,9.76,9.76,0,0,0,2.76.66c.8.21,1.53.58,2.29.86.92.33,1.82.75,2.77,1a.42.42,0,0,0,.27,0,2.38,2.38,0,0,1,2,.33,2.53,2.53,0,0,1,.56.25c.11.09.24,0,.34-.08a.49.49,0,0,1,.86.11,1.3,1.3,0,0,0,.65.51c.09,0,.24.08.29,0,.41-.33.79,0,1.16.06A24.65,24.65,0,0,1,.55,10.54c.12.06.27.15.38,0s0-.25-.09-.35S.61,9.89.5,9.73a3.11,3.11,0,0,1,1.83-.27c.19,0,.4-.07.56,0,.39.28.31,0,.3-.23.46.23,1,.22,1.43.59,0,.05.17,0,.25.05.28.37.67.68.54,1.23,0,.16.09.19.22.18a.35.35,0,0,1,.43.36A.36.36,0,0,0,6.5,12c.39-.08.57.1.7.42a3.54,3.54,0,0,0,.19.33c-.29-.14-.8,0-.79-.56,0,0-.11-.05-.16-.06A.49.49,0,0,1,6.05,12c-.1-.11-.21-.08-.25,0-.15.33-.41.28-.7.27H-3.3a1.64,1.64,0,0,0-1.19.38c-.11.11-.2,0-.17-.11.06-.26-.13-.26-.27-.27a11,11,0,0,0-1.14-.05,15.62,15.62,0,0,1-3,.12c-.07,0-.18,0-.23.11a4.32,4.32,0,0,1,1,.44c.2.1.25.31.45.38a1.27,1.27,0,0,0,1-.08.83.83,0,0,1,.8-.06,9.61,9.61,0,0,1,1.44.89A5.7,5.7,0,0,1-6,13.38a.52.52,0,0,0-.63,0A1.55,1.55,0,0,1-8,13.45c-.21-.08-.37-.43-.64-.55s-.75-.32-1.12-.47c-.08,0-.17,0-.16.1.05.42-.19.19-.31.13-.35-.17-.69-.34-1-.53a1.44,1.44,0,0,0-.67-.16c-.18,0-.34.06-.29.29a.39.39,0,0,1-.14.38c-.05,0-.12.12-.19.1s-.05-.13-.05-.2-.13-.32-.33-.26-.35,0-.35-.27a.2.2,0,0,0-.18-.21c-.28-.06-.56-.1-.65-.45,0-.1-.17-.07-.22,0a.32.32,0,0,1-.49.11c-.84-.46-1.79-.67-2.65-1.07-.16-.08-.31-.19-.46-.28S-18,10-18.1,10c-.51.17-.86-.28-1.32-.33-.2,0-.4.08-.53.06-.49-.1-1,.14-1.45,0-.08,0-.21-.08-.25,0-.37.29-.74.08-1.1,0a.44.44,0,0,0-.16,0,2.92,2.92,0,0,1-1.63-.05c-.36-.07-.67.13-1,.17a7.58,7.58,0,0,1-1.65,0,.61.61,0,0,0-.51.11,1.49,1.49,0,0,1-.72.33,3.61,3.61,0,0,0-1.45.66c-.41.31-.94.18-1.4.37a7.87,7.87,0,0,0-1.78,1c-.17.13-.24.39-.37.58a2.25,2.25,0,0,1-1.56.8.59.59,0,0,1,.57-.36c.12,0,.25,0,.36-.08A3.26,3.26,0,0,0-33.14,11.93Zm19.85-.35c-.06-.14.06-.34-.16-.4s-.12.06-.13.11C-13.63,11.53-13.39,11.48-13.29,11.58Zm2.54.41a.1.1,0,0,0-.12-.05c-.05,0-.11,0-.1.08a.11.11,0,0,0,.13.05S-10.74,12.06-10.75,12ZM6,11.65s-.06-.07-.08-.07a.09.09,0,0,0-.06.07s0,.1.07.08S5.92,11.68,6,11.65Zm-18.83.21s-.06-.07-.09-.07-.08,0-.08,0,0,.09.07.08S-12.92,11.88-12.88,11.86Zm2.77.63s0-.07-.07-.08-.08,0-.09,0,0,.09.06.09A.26.26,0,0,0-10.11,12.49Z"/><path class="cls-7" d="M-4.62,14.07a9.61,9.61,0,0,0-1.44-.89.83.83,0,0,0-.8.06,1.27,1.27,0,0,1-1,.08c-.2-.07-.25-.28-.45-.38a4.32,4.32,0,0,0-1-.44c0-.15.16-.12.23-.11a15.62,15.62,0,0,0,3-.12,11,11,0,0,1,1.14.05c.14,0,.33,0,.27.27,0,.11.06.22.17.11a1.64,1.64,0,0,1,1.19-.38H5.1c.29,0,.55.06.7-.27,0-.1.15-.13.25,0a.49.49,0,0,0,.39.13s.16,0,.16.06c0,.59.5.42.79.56s.29,0,.41.09S7.92,13,8,13a8.83,8.83,0,0,0,1.29,1.15c.09.05.12.22.18.33s0,.41.32.36h0c.09.28.21.51.54.55h0q0,.25.21.24h0c0,.46.34.75.57,1.09.1.16.19.31,0,.48s-.33.09-.47,0a.45.45,0,0,0-.44-.15,1.8,1.8,0,0,1-.69.06c-1.28,0-2.56,0-3.84,0-.16,0-.35,0-.34.24H5.17c0-.21-.2-.3-.23-.48s-.34-.2-.54-.23L4,16.4a.67.67,0,0,0-.59-.3c-.15,0-.35-.11-.42.15s0,.25-.07.39.11.2-.08.22a3.08,3.08,0,0,1-1.28-.13c-.1-.05-.17,0-.19.12h0l-.1,0c0-.11-.17-.14-.15-.26s.1-.22-.06-.33a1.71,1.71,0,0,0-.94-.14L-.14,16c0-.24-.15-.23-.31-.23H-.68c0-.15-.13-.15-.24-.15s-.44-.38-.76-.31c0-.1,0-.19-.16-.08S-2,15.05-2.15,15c-.42-.12-.82-.3-1.23-.45,0-.21-.19-.14-.31-.15s-.25-.09-.37-.14-.3-.24-.51-.16h0Zm.91-1.14c-.1,0-.19,0-.24.05s0,.12.06.15c.34.18.67.37,1,.54a.16.16,0,0,0,.23-.06.16.16,0,0,0,0-.24C-3,13.21-3.39,13.07-3.71,12.93Z"/><path class="cls-8" d="M-9.23.11a.2.2,0,0,1,.32.06.62.62,0,0,0,.1.16c.25.22.4.51.89.38a6.78,6.78,0,0,1,1.69,0c.2,0,.4.06.58-.11s.2,0,.25.1.07.37.3.3.17-.27.18-.43h.08l.07.07h0c0,.11,0,.24.18.19h0c0,.1,0,.15.14.15h0c0,.2,0,.35.3.3h0a.47.47,0,0,0,.42.48h0l.07.07h0c0,.11,0,.23.18.18h0c0,.13,0,.18.14.15h0c0,.05,0,.08.07.07h0c0,.19,0,.26.22.23h0c0,.29.2.4.44.48h0A.86.86,0,0,0-2,3.52h0c0,.17.06.24.23.23h0a1.49,1.49,0,0,0,.93.92h0l.07.07h0c0,.17.07.24.23.23h0a1.45,1.45,0,0,0,.92.89l0,0,0,0c0,.05,0,.07,0,.06V6c-.08.26.1.25.27.25h0a.77.77,0,0,0,.39.49,2,2,0,0,1,.77.92,1.37,1.37,0,0,0,.48.76,2.16,2.16,0,0,1,.77.88c0,.22.09.51-.3.23-.16-.12-.37,0-.56,0A3.11,3.11,0,0,0,.5,9.73h0c.05-.4,0-.42-.49-.42H0a.65.65,0,0,0-.69-.62h0l-.06-.07h0v0c0-.15.06-.43-.28-.31h0c0-.3-.18-.43-.44-.48h0c0-.2-.11-.29-.29-.32A.39.39,0,0,1-2,7.22C-2,7.05-2.06,7-2.23,7h0a.14.14,0,0,0-.16-.16h0c0-.23-.16-.31-.36-.33h0c0-.06,0-.11-.11-.12h0c0-.17-.09-.18-.21-.18h0c-.13-.45-.51-.59-.88-.74h0A.42.42,0,0,0-4.3,5c-.81-.74-1.63-1.47-2.41-2.23S-8.2,1.23-8.94.46C-9,.35-9.14.23-9.23.11Zm1.62,1.48c.13,0,.2,0,.21-.12s0-.18-.17-.18-.18,0-.17.1A.19.19,0,0,0-7.61,1.59Z"/><path class="cls-9" d="M5.4,17.33c0-.27.18-.24.34-.24,1.28,0,2.56,0,3.84,0a1.8,1.8,0,0,0,.69-.06.45.45,0,0,1,.44.15c.14.12.3.23.47,0s.06-.32,0-.48c-.23-.34-.58-.63-.57-1.09a9.24,9.24,0,0,1,.82,1.15.24.24,0,0,0,.15.17c.53.13.8.61,1.23.88a.61.61,0,0,1,.21.4c0,.12.07.27.24.24.43-.06.76.13.76.52,0,.59.08,1.17.13,1.76A.25.25,0,0,1,14,21a3.86,3.86,0,0,1-2,.69.65.65,0,0,1-.66-.41.68.68,0,0,0-.59-.43,1.12,1.12,0,0,1-.5-.18,3.27,3.27,0,0,0-1.37-.8c-.13,0-.23-.19-.35-.3s-.16-.09-.25-.12h0v0a.17.17,0,0,0-.22-.09.15.15,0,0,1-.18,0c-.09-.24-.28-.09-.43-.12a.15.15,0,0,1-.19,0A.13.13,0,0,0,7.09,19h0c0-.17-.11-.16-.23-.16l-.07,0c-.07-.22-.25-.09-.39-.12l-.07,0c0-.17-.18-.1-.28-.13H6v0l-.1-.06h0v0c0-.18-.07-.37-.33-.33h0a.79.79,0,0,0-.13-.4v-.38Z"/><path class="cls-10" d="M3.19,9.28a2.16,2.16,0,0,0-.77-.88,1.37,1.37,0,0,1-.48-.76,2,2,0,0,0-.77-.92.77.77,0,0,1-.39-.49A3.86,3.86,0,0,1,2.39,8.14s0,.06,0,.07c.64.35.94,1.19,1.79,1.25a.84.84,0,0,1,.66.46c-.08,0-.2,0-.25-.05C4.21,9.5,3.65,9.51,3.19,9.28Z"/><path class="cls-9" d="M.09,16.09a1.71,1.71,0,0,1,.94.14c.16.11.17.19.06.33s-.21,0-.3.05a.15.15,0,0,1-.16-.09C.53,16.27.21,16.31.09,16.09Z"/><path class="cls-9" d="M1.39,16.85c0-.11.09-.17.19-.12a3.08,3.08,0,0,0,1.28.13V17h0c-.12,0-.3-.08-.31.16H2.11l0,0C1.94,16.88,1.6,17,1.39,16.85Z"/><path class="cls-10" d="M.43,5.86l0,0A1.45,1.45,0,0,1-.53,5,9.91,9.91,0,0,1,.43,5.86Z"/><path class="cls-6" d="M-.68,8.69A.65.65,0,0,1,0,9.31C-.36,9.26-.51,9-.68,8.69Z"/><path class="cls-9" d="M3,16.25c.07-.26.27-.15.42-.15a.67.67,0,0,1,.59.3l-.29,0s-.07,0-.1,0-.1-.17-.21-.1H3.16Z"/><path class="cls-6" d="M.09,16.09c.12.22.44.18.54.43A8.67,8.67,0,0,1-.46,16v0l.31.08Z"/><path class="cls-6" d="M3,16.25l.15,0a.45.45,0,0,0-.08.42c0,.17,0,.29-.21.32v-.17c.19,0,.07-.14.08-.22S2.89,16.36,3,16.25Z"/><path class="cls-6" d="M3.73,16.42l.29,0,.38.23.08.18A3,3,0,0,1,3.73,16.42Z"/><path class="cls-6" d="M0,9.31c.51,0,.54,0,.49.42Z"/><path class="cls-6" d="M4.94,16.86c0,.18.26.27.23.48l-.61-.48Z"/><path class="cls-9" d="M10.35,15.39c-.33,0-.45-.27-.54-.55A1.58,1.58,0,0,1,10.35,15.39Z"/><path class="cls-6" d="M1.39,16.85c.21.17.55,0,.7.32a1.56,1.56,0,0,1-.75-.31Z"/><path class="cls-6" d="M.79,16.61c.09-.09.2-.05.3-.05s.14.15.15.26A.85.85,0,0,1,.79,16.61Z"/><path class="cls-9" d="M4.94,16.86H4.56l-.08-.05-.08-.18C4.6,16.66,4.82,16.66,4.94,16.86Z"/><path class="cls-9" d="M9.81,14.85c-.29.05-.33-.14-.32-.36A.86.86,0,0,1,9.81,14.85Z"/><path class="cls-6" d="M5.55,18.11c.26,0,.29.15.33.33C5.73,18.37,5.58,18.29,5.55,18.11Z"/><path class="cls-6" d="M6.4,18.72c.14,0,.32-.1.39.12C6.65,18.84,6.5,18.87,6.4,18.72Z"/><path class="cls-6" d="M2.13,17.18h.44C2.42,17.35,2.28,17.3,2.13,17.18Z"/><path class="cls-6" d="M7.44,19.19c.15,0,.34-.12.43.12A.72.72,0,0,1,7.44,19.19Z"/><path class="cls-10" d="M.78,6.22c-.17,0-.35,0-.27-.25A.65.65,0,0,1,.78,6.22Z"/><path class="cls-6" d="M5.4,17.33v.36l-.25-.36Z"/><path class="cls-9" d="M10.56,15.63q-.26,0-.21-.24A.34.34,0,0,1,10.56,15.63Z"/><path class="cls-6" d="M2.56,17.19c0-.24.19-.16.31-.16A.35.35,0,0,1,2.56,17.19Z"/><path class="cls-6" d="M5.42,17.71a.79.79,0,0,1,.13.4A.37.37,0,0,1,5.42,17.71Z"/><path class="cls-6" d="M6.05,18.55c.1,0,.24,0,.28.13A.31.31,0,0,1,6.05,18.55Z"/><path class="cls-6" d="M6.86,18.87c.12,0,.24,0,.23.16A.25.25,0,0,1,6.86,18.87Z"/><path class="cls-6" d="M8.31,19.47c.09,0,.22,0,.25.12A.21.21,0,0,1,8.31,19.47Z"/><path class="cls-6" d="M3.42,16.29c.11-.07.19-.05.21.1A.22.22,0,0,1,3.42,16.29Z"/><path class="cls-6" d="M8,13c-.1,0-.21,0-.22-.14A.23.23,0,0,1,8,13Z"/><path class="cls-6" d="M8.05,19.35a.17.17,0,0,1,.22.09A.25.25,0,0,1,8.05,19.35Z"/><path class="cls-6" d="M7.09,19a.13.13,0,0,1,.16.13A.2.2,0,0,1,7.09,19Z"/><path class="cls-6" d="M5.92,18.47l.1.06A.07.07,0,0,1,5.92,18.47Z"/><path class="cls-10" d="M.5,6c-.06,0-.07,0,0-.06Z"/><path class="cls-7" d="M6,11.65s0,.08-.07.08-.08,0-.07-.08a.09.09,0,0,1,.06-.07S5.92,11.62,6,11.65Z"/></g><path class="cls-11" d="M25,47.5a2.72,2.72,0,0,1-1.74-.63C18.35,42.79,7,32.05,7,20.49a18,18,0,0,1,36,0c0,11-11.37,22.09-16.25,26.34A2.69,2.69,0,0,1,25,47.5Zm0-44a17,17,0,0,0-17,17C8,31.94,20.15,43,23.87,46.1a1.71,1.71,0,0,0,2.22,0C29.82,42.83,42,31.38,42,20.49A17,17,0,0,0,25,3.5Z"/><g class="cls-12"><rect class="cls-13" x="2" width="44" height="49"/><path class="cls-14" d="M5,6.25c1.54-.9,1.3-2.6,1.75-4C14-19.95,35.1-29.69,56.59-24.94c-2.82,1.28-5.5,2.38-8.07,3.69C28.39-11,20.86,11.76,30.61,32.5,35.66,43.25,44,50.67,54.4,56H33.47a4.25,4.25,0,0,0-1-.71C18.55,50.14,10.27,40.05,6.41,26c-.3-1.08,0-2.55-1.41-3.2Z"/></g><circle class="cls-13" cx="25" cy="21" r="10"/><circle class="cls-15" cx="25" cy="21" r="7"/></svg>