<svg id="Capa_1" data-name="Capa 1" xmlns="http://www.w3.org/2000/svg" xmlns:xlink="http://www.w3.org/1999/xlink" viewBox="0 0 50 50"><defs><style>.cls-1,.cls-4{fill:none;}.cls-2{clip-path:url(#clip-path);}.cls-3{fill:#e30613;}.cls-4{fill-rule:evenodd;}.cls-5{fill:url(#linear-gradient);}.cls-6{fill:url(#linear-gradient-2);}.cls-7{isolation:isolate;}.cls-8{clip-path:url(#clip-path-2);}.cls-9{fill:#db7f27;}.cls-10{fill:#d97f28;}.cls-11{fill:#ec8523;}.cls-12{clip-path:url(#clip-path-3);}.cls-13{fill:#eb8523;}.cls-14{fill:#e78324;}.cls-15{fill:#e28125;}.cls-16{fill:#e08026;}.cls-17{clip-path:url(#clip-path-4);}.cls-18{clip-path:url(#clip-path-5);}.cls-19{fill:#076b35;}.cls-20{fill:#028845;}.cls-21{fill:#fff;}.cls-22{clip-path:url(#clip-path-6);}.cls-23{fill:#61921e;}</style><clipPath id="clip-path"><path class="cls-1" d="M-9.5,20.49c0,11-11.91,22.33-16.08,26a2.2,2.2,0,0,1-2.87,0c-4.2-3.51-16-14.44-16-26A17.5,17.5,0,0,1-27,3,17.5,17.5,0,0,1-9.5,20.49Z"/></clipPath><linearGradient id="linear-gradient" x1="22.47" y1="-2.1" x2="53.28" y2="-32.91" gradientUnits="userSpaceOnUse"><stop offset="0" stop-color="#ffcb04"/><stop offset="0.02" stop-color="#ffce04"/><stop offset="0.15" stop-color="#fcdd02"/><stop offset="0.31" stop-color="#fae500"/><stop offset="0.55" stop-color="#fae800"/><stop offset="1" stop-color="#fbf39d"/></linearGradient><linearGradient id="linear-gradient-2" x1="-11.19" y1="8.74" x2="19.62" y2="-22.07" xlink:href="#linear-gradient"/><clipPath id="clip-path-2"><path class="cls-1" d="M37.67,10.85,34,9.16a3.37,3.37,0,0,0,1.44.29,4.22,4.22,0,0,0,1.41-.26l3.68,1.7a4.22,4.22,0,0,1-1.41.26A3.34,3.34,0,0,1,37.67,10.85Z"/></clipPath><clipPath id="clip-path-3"><path class="cls-1" d="M43.84,2.18l3.68,1.7a6.81,6.81,0,0,1-4.22,6L39.62,8.21A6.83,6.83,0,0,0,43.84,2.18Z"/></clipPath><clipPath id="clip-path-4"><path class="cls-1" d="M4,21.69l-2.21-1L.33,20a3.53,3.53,0,0,0,1.44.3A4.48,4.48,0,0,0,3.18,20l3.67,1.69A4.17,4.17,0,0,1,5.44,22,3.19,3.19,0,0,1,4,21.69Z"/></clipPath><clipPath id="clip-path-5"><path class="cls-1" d="M10.18,13l3.68,1.7a6.83,6.83,0,0,1-4.22,6L6,19A6.8,6.8,0,0,0,10.18,13Z"/></clipPath><clipPath id="clip-path-6"><path class="cls-1" d="M-9.5,73.5c0,11-11.91,22.32-16.08,26a2.21,2.21,0,0,1-2.87,0c-4.2-3.5-16-14.44-16-26A17.5,17.5,0,0,1-27,56,17.5,17.5,0,0,1-9.5,73.5Z"/></clipPath></defs><title>Ícono_APPSistAlertasTempranas</title><g class="cls-2"><path class="cls-3" d="M-52.47,50.6c9.3,10.62,30,7.72,46.2-6.48S15.55,9.79,6.25-.83-23.74-8.55-40,5.65-61.77,40-52.47,50.6Z"/><polygon class="cls-4" points="44.73 -40.74 56.02 -44.49 56.02 7.66 44.8 11.33 44.73 -40.74"/><polygon class="cls-4" points="8.43 -29.97 19.72 -33.73 19.72 18.43 8.49 22.09 8.43 -29.97"/><path class="cls-5" d="M40.32-44.47a3.32,3.32,0,0,1,3.34,3.6l.18,43.05a6.83,6.83,0,0,1-4.22,6l-2.78,1a4.22,4.22,0,0,1-1.41.26A3.3,3.3,0,0,1,32.1,5.86l-.19-43a6.83,6.83,0,0,1,4.22-6l2.78-1A4.54,4.54,0,0,1,40.32-44.47Z"/><path class="cls-6" d="M6.66-33.63A3.32,3.32,0,0,1,10-30L10.18,13A6.8,6.8,0,0,1,6,19L3.18,20a4.48,4.48,0,0,1-1.41.26,3.32,3.32,0,0,1-3.34-3.6l-.18-43a6.81,6.81,0,0,1,4.22-6l2.78-1A4.48,4.48,0,0,1,6.66-33.63Z"/><g class="cls-7"><g class="cls-8"><path class="cls-9" d="M36.84,9.19l3.68,1.7a4.22,4.22,0,0,1-1.41.26,3.34,3.34,0,0,1-1.44-.3L34,9.16a3.37,3.37,0,0,0,1.44.29,4.22,4.22,0,0,0,1.41-.26"/></g></g><polygon class="cls-10" points="39.62 8.21 43.3 9.9 40.52 10.89 36.84 9.19 39.62 8.21"/><polygon class="cls-11" points="43.66 -40.87 47.34 -39.18 47.52 3.88 43.84 2.18 43.66 -40.87"/><g class="cls-7"><g class="cls-12"><path class="cls-13" d="M43.84,2.18l3.68,1.7a5.12,5.12,0,0,1,0,.67L43.8,2.85a3.82,3.82,0,0,0,0-.67"/><path class="cls-14" d="M43.8,2.85l3.68,1.7a5.36,5.36,0,0,1-.15.78l-3.68-1.7a5.36,5.36,0,0,0,.15-.78"/><path class="cls-15" d="M43.65,3.63l3.68,1.7a8.08,8.08,0,0,1-.32.9l-3.68-1.7a5.66,5.66,0,0,0,.32-.9"/><path class="cls-16" d="M43.33,4.53,47,6.23a7.22,7.22,0,0,1-.59,1.09l-3.67-1.7a7.59,7.59,0,0,0,.58-1.09"/><path class="cls-9" d="M42.75,5.62l3.67,1.7A6.49,6.49,0,0,1,43.3,9.9L39.62,8.21a6.59,6.59,0,0,0,3.13-2.59"/></g></g><g class="cls-7"><g class="cls-17"><path class="cls-9" d="M3.18,20l3.67,1.69A4.17,4.17,0,0,1,5.44,22,3.19,3.19,0,0,1,4,21.69L.33,20a3.53,3.53,0,0,0,1.44.3A4.48,4.48,0,0,0,3.18,20"/></g></g><polygon class="cls-10" points="5.96 19.04 9.63 20.74 6.85 21.73 3.18 20.04 5.96 19.04"/><polygon class="cls-11" points="10 -30.03 13.67 -28.33 13.86 14.72 10.18 13.02 10 -30.03"/><g class="cls-7"><g class="cls-18"><path class="cls-13" d="M10.18,13l3.68,1.7a5.12,5.12,0,0,1,0,.67l-3.68-1.7a5,5,0,0,0,0-.67"/><path class="cls-14" d="M10.14,13.69l3.68,1.7a5.4,5.4,0,0,1-.16.78L10,14.47a5.36,5.36,0,0,0,.15-.78"/><path class="cls-15" d="M10,14.47l3.67,1.7a6.4,6.4,0,0,1-.31.9l-3.68-1.7a6.86,6.86,0,0,0,.32-.9"/><path class="cls-16" d="M9.67,15.37l3.68,1.7a7.22,7.22,0,0,1-.59,1.09l-3.68-1.7a7.22,7.22,0,0,0,.59-1.09"/><path class="cls-9" d="M9.08,16.46l3.68,1.7a6.54,6.54,0,0,1-3.12,2.58L6,19a6.44,6.44,0,0,0,3.12-2.58"/></g></g></g><path class="cls-19" d="M25,47.5a2.72,2.72,0,0,1-1.74-.63C18.35,42.79,7,32.05,7,20.49a18,18,0,0,1,36,0c0,11-11.37,22.09-16.25,26.34A2.69,2.69,0,0,1,25,47.5Zm0-44a17,17,0,0,0-17,17C8,31.94,20.15,43,23.87,46.1a1.71,1.71,0,0,0,2.22,0C29.82,42.83,42,31.38,42,20.49A17,17,0,0,0,25,3.5Z"/><path class="cls-20" d="M42.5,20.49c0,11-11.91,22.33-16.08,26a2.2,2.2,0,0,1-2.87,0c-4.2-3.51-16-14.44-16-26a17.5,17.5,0,0,1,35,0Z"/><circle class="cls-21" cx="25" cy="21" r="10"/><circle class="cls-20" cx="25" cy="21" r="7"/><g class="cls-22"><path class="cls-23" d="M-47,59.25c1.54-.9,1.3-2.6,1.75-4C-38,33.05-16.9,23.31,4.59,28.06c-2.82,1.28-5.5,2.38-8.07,3.69C-23.61,42-31.14,64.76-21.39,85.5-16.34,96.25-8,103.67,2.4,109H-18.53a4.25,4.25,0,0,0-1-.71c-14-5.15-22.24-15.24-26.1-29.25-.3-1.08,0-2.55-1.41-3.2Z"/></g></svg>