<svg id="Capa_1" data-name="Capa 1" xmlns="http://www.w3.org/2000/svg" xmlns:xlink="http://www.w3.org/1999/xlink" viewBox="0 0 50 50"><defs><style>.cls-1{fill:none;}.cls-2{clip-path:url(#clip-path);}.cls-3{fill:#000236;}.cls-3,.cls-4,.cls-5{fill-rule:evenodd;}.cls-4,.cls-6{fill:#fff;}.cls-5{fill:#136536;}.cls-7{fill:#a9362c;}.cls-8{clip-path:url(#clip-path-2);}.cls-9{fill:#ff4438;}.cls-10{clip-path:url(#clip-path-3);}.cls-11{fill:#e30613;}.cls-12{clip-path:url(#clip-path-4);}.cls-13{fill:#e3b931;}.cls-14{fill:#322c59;}.cls-15{clip-path:url(#clip-path-5);}.cls-16{fill:#fdfdfd;}.cls-17{fill:#054886;}.cls-18{fill:#065184;}.cls-19{fill:#116576;}.cls-20{fill:#095f76;}</style><clipPath id="clip-path"><path class="cls-1" d="M-9.5,20.49c0,11-11.91,22.33-16.08,26a2.2,2.2,0,0,1-2.87,0c-4.2-3.51-16-14.44-16-26A17.5,17.5,0,0,1-27,3,17.5,17.5,0,0,1-9.5,20.49Z"/></clipPath><clipPath id="clip-path-2"><path class="cls-1" d="M42.5,20.49c0,11-11.91,22.33-16.08,26a2.2,2.2,0,0,1-2.87,0c-4.2-3.51-16-14.44-16-26a17.5,17.5,0,0,1,35,0Z"/></clipPath><clipPath id="clip-path-3"><path class="cls-1" d="M94.5,20.49c0,11-11.91,22.33-16.08,26a2.2,2.2,0,0,1-2.87,0c-4.2-3.51-16-14.44-16-26a17.5,17.5,0,0,1,35,0Z"/></clipPath><clipPath id="clip-path-4"><path class="cls-1" d="M-9.5,73.5c0,11-11.91,22.32-16.08,26a2.21,2.21,0,0,1-2.87,0c-4.2-3.5-16-14.44-16-26A17.5,17.5,0,0,1-27,56,17.5,17.5,0,0,1-9.5,73.5Z"/></clipPath><clipPath id="clip-path-5"><path class="cls-1" d="M42.5,73.5c0,11-11.91,22.32-16.08,26a2.21,2.21,0,0,1-2.87,0c-4.2-3.5-16-14.44-16-26a17.5,17.5,0,0,1,35,0Z"/></clipPath></defs><title>Ícono_APPSistAlertasTempranas</title><g class="cls-2"><path class="cls-3" d="M-60.42,33.84-51.17-8C-50-13.49-44.48-18-39-18H74.27c5.49,0,9,4.47,7.77,10L71,41.75a12.9,12.9,0,0,1-6.25,8.19C16.37,33.28-50.24,33.3-60.42,33.84"/><path class="cls-4" d="M64.69,50.13c-48.36-16.61-115-16.57-125.17-16l-.64,2.78C-11.77,37.32,7.06,44,31.47,52H58.81a9.68,9.68,0,0,0,5.88-1.82"/><path class="cls-5" d="M32.44,52-50.47,65c-5.48,0-13-17.55-11.77-23l1.13-5.08c38.78-1,71.74,6.67,93.55,15.08"/><path class="cls-6" d="M38.22-6.86A15.16,15.16,0,0,1,35.8-3.54L11.07,27.56a8,8,0,0,1-6,2.87c-1.71,0-2.7-.7-3-2.09C2,28,2.07,26,2,22.41L1.54-6.73A6.83,6.83,0,0,1,1.85-9q.88-2.71,4.41-2.71c2.13,0,3.51.78,3.51,2.4V-4.9L9.9,18.61,31.25-8.8c1.17-1.5,2.35-2.29,3.6-2.29a3.25,3.25,0,0,1,2.31.92,3.73,3.73,0,0,1,1.07,2,3,3,0,0,1,0,1.3"/><path class="cls-6" d="M5.56-16.55A61.44,61.44,0,0,1,3-9.47C1.6-6.29-.72-3.66-4.56-3.66c-2.49,0-3.87-.68-4.13-2.06a4,4,0,0,1,.14-1.81c.62-2.19.61-.94,1.27-3.12.19-.75,0-1.12-.55-1.12a20,20,0,0,0-3,.55A53,53,0,0,0-30.33-2.48q-12.45,8.77-14.3,15.75a4.79,4.79,0,0,0-.09,2.15,4.44,4.44,0,0,0,2.44,3.09,10.51,10.51,0,0,0,5.18,1.14,42.43,42.43,0,0,0,12-2.3c2.38-.72,6.36-2.13,12-4.23,4-1.54,6.54-2.3,7.46-2.3,1.63,0,2.55.6,2.78,1.8A3.78,3.78,0,0,1-3,14.33a8.37,8.37,0,0,1-4.18,5.25q-5.17,2.94-16.27,5.65-10.84,2.64-17.18,2.64-12.44,0-13.92-7.73a12.44,12.44,0,0,1,.34-5.58Q-51,2.37-34.79-8.36a81.46,81.46,0,0,1,33.45-13,19,19,0,0,1,2.82-.21q4.11,0,4.48,2a7.43,7.43,0,0,1-.4,3"/></g><path class="cls-7" d="M25,47.5a2.72,2.72,0,0,1-1.74-.63C18.35,42.79,7,32.05,7,20.49a18,18,0,0,1,36,0c0,11-11.37,22.09-16.25,26.34A2.69,2.69,0,0,1,25,47.5Zm0-44a17,17,0,0,0-17,17C8,31.94,20.15,43,23.87,46.1a1.71,1.71,0,0,0,2.22,0C29.82,42.83,42,31.38,42,20.49A17,17,0,0,0,25,3.5Z"/><g class="cls-8"><rect class="cls-6" x="2" y="-9" width="44" height="63"/><path class="cls-9" d="M2.69,47H48V1.7H2.69Zm15.1-15.85A14.37,14.37,0,0,1,3.44,16.8V2.46H32.13V16.8H17.79L24.2,29.63a14.25,14.25,0,0,1-6.41,1.52m15.1,14.16L19,17.56H46.76Z"/></g><circle class="cls-9" cx="25" cy="21" r="10"/><circle class="cls-6" cx="25" cy="21" r="7"/><g class="cls-10"><path class="cls-11" d="M51.53,50.6c9.3,10.62,30,7.72,46.2-6.48S119.55,9.79,110.25-.83,80.26-8.55,64,5.65,42.23,40,51.53,50.6Z"/></g><g class="cls-12"><path class="cls-13" d="M1.75,93.13C-9.08,101.49-12.43,103.21-27.43,105c-15.66-1.62-22-6.77-29.08-12.25-11.75-12.4-11.4-29.24-11.4-29.24s9.44,0,14.41,0a27.23,27.23,0,0,1-4-12.5L-58-3.65s2-5.86,5.88-5.92,7,3.79,7,3.79-.1-11,6.91-10.27a10.49,10.49,0,0,1,6.54,3.72s-1.44-11,6.75-11.06,7.28,10.6,7.28,10.6,3-3.87,5.78-3.92A7,7,0,0,1-4.65-11.3l.24,26.08s6-3.55,10.15-3.09c0,4.2.4,41.83.4,41.83s-1.25,6-4.8,9.38c2.54.06,12.58-.13,12.58-.13s-1.33,22-12.17,30.36"/><path class="cls-14" d="M5.16,52.4,4.78,12.63a10.76,10.76,0,0,0-8.4,4.07l-1.55-1.15c4.06-5.47,10.73-4.83,11-4.81l.87.08.39,41.56Z"/></g><g class="cls-15"><path class="cls-16" d="M67.12,91.26v58.83c0,.28-.06.35-.35.35H-23.65c-.28,0-.35-.07-.35-.35q0-58.87,0-117.74c0-.28.07-.35.35-.35H66.77c.29,0,.36.07.35.35ZM10.54,63.15l-.07.09-.12.12c-.15.42-.59.53-.88.8h0c-.09,0-.13,0-.14.14v0c-.08,0-.14,0-.15.14h0c-.13.28-.29.48-.66.38-.14,0-.37-.07-.44.11s.06.33.2.45h0c0,.09.13.32-.08.25s-.25.15-.34.25l-.1.06a.57.57,0,0,0-.45.33h0c-.14,0-.12.28-.23.27-.34,0-.41.29-.59.47s-.12.12-.07.19.16,0,.23,0,.2-.21.35,0,.24.3,0,.49H7a.93.93,0,0,0-.38.38c-.05.11-.07.22.1.26s.25-.09.31.06-.22.13-.24.29c.24.09.29.15,0,.34a.76.76,0,0,0-.11,1.17l0,.08s0,.06,0,.06h0c.15.26-.12.41-.16.63a4,4,0,0,0,.1,1.15c0,.33-.07.38-.34.33H6.31a.33.33,0,0,0-.14.5v.17s0,0,0,.06c0,.33,0,.6.42.67A.48.48,0,0,1,7,74.4c0,.32-.24.22-.42.22s-.19.12-.22.28.18.72-.4.69c-.08,0-.12.08-.1.17a.16.16,0,0,0,.22.1l.7-.19c.09,0,.22,0,.19.07-.09.3.13.62-.06.92h0c-.16,0-.27-.06-.23-.26s0-.21-.08-.25-.21,0-.24.16l-.09.09c-.11.09-.3.14-.18.35l.46.4c.22.18.33.55.75.35.09,0,.13.1.13.19a.65.65,0,0,0,.4.65c.17.08.21.2.08.37a.31.31,0,0,0-.08.24.6.6,0,0,0,.23.7.39.39,0,0,0,.3.16c.06.14,0,.24-.1.35s-.11.15,0,.25v.47a1.73,1.73,0,0,1-.57.3c-.07,0-.14.08-.14.17s.09.09.16.12c.41.15.47.28.31.72-.35,0-.65-.19-1-.16h0c0-.06-.07-.13-.16-.13l-.22-.1c-.18-.15-.21-.14-.27.09a.47.47,0,0,0,0,.31.59.59,0,0,0-.36.45h0a.7.7,0,0,1-.38,0c-.33-.18-.15-.47-.17-.72s0-.46-.31-.33c-.11,0-.23.08-.32,0s0-.22,0-.32a.74.74,0,0,0-.07-.76c-.1-.12-.18-.23,0-.35s.28-.36.54-.29.2.14.11.27a.73.73,0,0,0-.05.48c0,.22.18.22.29.15s.43,0,.53-.23,0-.17-.14-.16a.25.25,0,0,1-.27-.21.64.64,0,0,0,0-.54A.91.91,0,0,0,5.59,79a2.29,2.29,0,0,0-.08-.69c-.19-.23-.54-.09-.73-.33,0,0-.08.07-.06.11a1.25,1.25,0,0,1-.06.74c0,.17,0,.37.24.41s.12.18.09.3a.41.41,0,0,0-.3.14c-.07.07-.15.17-.26.12s-.07-.18-.07-.27c0-.51,0-1,0-1.54,0-.28-.3-.41-.22-.69a.14.14,0,0,0,0-.16.41.41,0,0,0-.26-.31c-.24-.12-.26-.34-.11-.48s.13-.49,0-.73l0-.17a.5.5,0,0,0-.1-.38c-.08-.1-.26-.13-.2-.31a.32.32,0,0,0,.28-.16,4,4,0,0,0,.46-.14c.18-.07.12-.14,0-.21S4,73.82,3.62,74c-.11,0-.24,0-.21-.14s-.08-.4.13-.48.16.11.18.23.19.17.31.13.07-.15,0-.23a.22.22,0,0,1,0-.31l.28-.32a.24.24,0,0,0,0-.39c-.15-.09-.22,0-.29.15s-.24.28-.33,0-.21-.21-.36-.13a1.92,1.92,0,0,1-.61.21.24.24,0,0,1-.3-.12c-.06-.16.1-.14.18-.17A.36.36,0,0,0,2.81,72c0-.23-.18-.1-.28-.12s-.28-.14-.17-.32a.52.52,0,0,1,.32-.31c.07,0,.22,0,.19-.12A.3.3,0,0,0,2.68,71c-.3-.12-1.08.42-1.07.76,0,.09.09.12.12.19.23.41.15.71-.21.83-.17.19-.42,0-.63.11a1,1,0,0,0,.39.37c0,.11.15.15.24.2.08.32-.07.32-.3.22s-.2-.12-.27,0,0,.19.12.25V74a.13.13,0,0,0-.06.15.31.31,0,0,0,0,.31.58.58,0,0,1,0,.39H1c-.13.08-.16.18-.08.3l0,.16a.37.37,0,0,0,.12.3V76a3.22,3.22,0,0,0-.2,1.59c0,.05,0,.12.06.13.37.21.31.6.36.92s.15.9.64,1.11a.21.21,0,0,1,.08.37c-.26.3-.13.36.18.35.15,0,.36-.05.32.2s-.07.32-.33.24S2,81,2,81.17s.13.46.46.41c.11,0,.18.09.22.19s0,.18-.14.22-.2.19-.08.3.2,0,.28-.08a.29.29,0,0,1,.11-.11c.18-.08.42-.22.55,0s-.15.25-.29.33A.34.34,0,0,0,3,82.5c-.22.18-.06.21.09.25a.46.46,0,0,1,0,.38c-.08.25.06.31.27.29s.3,0,.41.12a1,1,0,0,0,.64.45c.07,0,.15.05.14.15s-.08.08-.14.11-.38.08-.36.22.27.1.41.17.22.08.32.12.16.09.12.17c-.21.46.25.57.43.82s.26.2.31-.07.18-.21.29-.11.36.22.33.46c0,0-.08,0-.12,0s-.32-.07-.34.13.12.26.27.33l0,0h0a2.42,2.42,0,0,1,.1.36c0,.12.11.26.26.22s.07-.17,0-.26,0-.21.08-.25a.21.21,0,0,1,.29.16c.06.44.49.77.32,1.27-.06.19.06.37.31.22s.4,0,.55.17v0s0,.07.06.07h0a.18.18,0,0,0,.15.15h0a.16.16,0,0,0,.15.16,4.54,4.54,0,0,0,.66.79.29.29,0,0,0,.31.1.44.44,0,0,1,.58.36c0,.44.43.6.62.67.52.2.92.68,1.53.64.09.1.18.21.28.31s.21.14.33,0,.13-.2.24-.07.14.21,0,.32c-.37.38-.33.55.23.48,0,0,.07,0,.11,0,.37,0,.72.32,1.11,0,.14-.11.34,0,.47.14s.17.21.29.1.41-.07.6.08a1,1,0,0,0,.38.16,1,1,0,0,1,.66.59c.08.32.19.3.43.29a2,2,0,0,1,1.23.18.13.13,0,0,0,.14.1h0l.86.1v0h0c.1-.39.34-.48.69-.33a.38.38,0,0,0,.15,0h.41a.44.44,0,0,0,.37,0c.21.18.41.5.69.07A.12.12,0,0,0,22,94c.23,0,.28-.16.39-.28.33-.08.5.1.6.38,0,.09.07.28.16.2a.58.58,0,0,1,.82,0s.07,0,.11,0a.77.77,0,0,1,.63,0c.22.1.36.07.38-.18s.19-.22.36-.14h0a.18.18,0,0,0,.17.14h0c0,.13.14.21.26.17S26,94.07,26,94c0-.26.26-.37.32-.3s.41.19.6.31.27.26.42,0,0-.29-.14-.41-.2-.46-.16-.7a.34.34,0,0,1,.44-.27.12.12,0,0,0,.16-.07.15.15,0,0,0-.06-.17c-.07,0-.16-.06-.21,0-.17.26-.38.13-.58.06l0-.12a.14.14,0,0,0,.13-.14h0c.09,0,.13-.06.15-.14.23-.25.4-.15.58.07s.22.37.42.17a.41.41,0,0,1,.66,0c.18.17.31.16.33-.12,0-.1,0-.23.14-.17.36.2.58-.06.82-.23.41-.29.91-.48,1.1-1,.05-.13.22-.13.34-.16A2.05,2.05,0,0,0,32.67,90h0v0l0-.08a1.4,1.4,0,0,0,.71-1.08h0c.15,0,.12-.28.26-.31.55-.08.56-.66.89-.93h0a1,1,0,0,0,.4-.45v0a.22.22,0,0,0,.19-.19h0a.6.6,0,0,0,.3-.38c.1-.3.27-.31.49-.14a.37.37,0,0,0,.6-.06.55.55,0,0,1,.5-.2,1.59,1.59,0,0,1,.38,0c.22,0,.17-.43.41-.23s-.08.36,0,.55,0,.27-.14.36a1,1,0,0,0-.58.67.58.58,0,0,1-.55.14c-.12,0-.23,0-.26.13l.06.41a.24.24,0,0,1,0,.1c-.24.22-.6.41-.12.76.09.07,0,.22-.07.3s-.17.2-.29.17-.1-.18-.1-.29-.08-.22-.19-.12-.64.41-.79.75a.54.54,0,0,1-.58.33c-.33,0-.41.09-.34.46,0,0,0,.1,0,.16l-.06,0a1.18,1.18,0,0,1-.62,0,.22.22,0,0,0-.3.07c-.07.07-.11.15,0,.24l0,0,0,0h0c0,.37-.22.35-.46.37a.31.31,0,0,0-.25,0,.23.23,0,0,0-.26,0l-.07.07c-.37-.06-.32.3-.48.46s-.12.21-.07.34-.23,0-.35,0a.22.22,0,0,0-.22,0c-.19,0-.13.11-.09.19a.59.59,0,0,1,0,.55h0a.26.26,0,0,0-.26.14s0,0,0,0c-.2,0-.4,0-.53.17a.26.26,0,0,0-.24.06c-.51,0-1,.32-1.49.19-.09,0-.17.07-.2.16-.16.58-.78.42-1.13.72,0,0-.11,0-.13,0-.17-.3-.35-.11-.54,0s-.35.26-.58.29-.15,0-.17.1a.8.8,0,0,1-.3.28c-.17.14,0,.17.07.23h0c.1.18-.08.32-.07.49s-.15.52.29.42h0c0-.18.23-.17.31-.29s.3,0,.37-.14l.09,0c.18.1.63-.21.52.34l0,.16c.17.21.29.17.48-.16l0,0c.07,0,.09,0,.1-.11h0a.16.16,0,0,0,.11-.17h0v0l.23,0,.24.14c0,.07,0,.14,0,.21s-.26.11-.12.24.25.2.39,0l.15-.14a.51.51,0,0,1,.65-.12.5.5,0,0,0,.65-.13,2.52,2.52,0,0,1,1.22-.71,1.14,1.14,0,0,0,.33-.07c.27-.15.18-.6.55-.66-.13-.39.2-.36.41-.42a1.45,1.45,0,0,0,.69-.28,3.41,3.41,0,0,1,.71-.37.77.77,0,0,0,.52-.42c.18-.5.72-.77.78-1.34,0-.1.13-.16.23-.17.31,0,.45-.27.6-.49s.34-.73.71-.94c.17,0,.39.13.5-.13l0,0h0c.12,0,.17-.06.16-.18v-.15l0-.33,0-.1c.15-.1.08-.24.08-.36-.06-.35.14-.27.33-.21h0c.16-.09,0-.24.08-.35s.16-.25,0-.32h0a.14.14,0,0,0-.22,0,.42.42,0,0,1-.42,0l0,0h0v-.22l.16,0a.31.31,0,0,0,.23,0c.18,0,.37,0,.45-.2V87.6a.46.46,0,0,1,.15-.32,1,1,0,0,0,.39-.24c.22-.17.46-.33.11-.61a.14.14,0,0,1,0-.21c.07-.07.14,0,.21,0,.24.09.37,0,.39-.25s.19-.3.41-.28.24,0,.24-.11-.14-.08-.22-.07-.19,0-.24-.07a.2.2,0,0,1,.07-.24,3.76,3.76,0,0,0,.76-1c.15-.22.13-.53.36-.71h0a.17.17,0,0,0,.16-.14h0a.6.6,0,0,0,.33-.3.05.05,0,0,0,0,0c.1,0,.19-.08.14-.17a.51.51,0,0,1,0-.53.61.61,0,0,0,0-.44v-.15c0-.21-.16-.35-.2-.54l0-.15c0-.07,0-.15,0-.23.08-.5-.09-1,0-1.51a1,1,0,0,0-.16-1h0a1.68,1.68,0,0,1,0-.45c.08-.54,0-.76-.59-.94-.22-.07-.27-.22-.18-.38s.13-.69.39-1c.08-.09.19-.21.06-.37a.11.11,0,0,1,0-.19c.54-.08.27-.45.23-.71s-.05-.31.21-.23.22-.06.27-.19,0-.19-.11-.23-.15-.18-.07-.3h.24a.67.67,0,0,1,.58.51,1.71,1.71,0,0,0,.38.73l0,.1a1.25,1.25,0,0,0,0,.19c.09.28.08.49-.31.45a1.09,1.09,0,0,0-.26,0c-.28.06-.69,0-.3.49.06.06,0,.15,0,.22s-.1.19,0,.26v0c.18.26.23.59.49.81h0c.07.17.14.29.36.16s.35-.28,0-.62v-.16c.21-.07.43-.14.64-.19a.27.27,0,0,1,.36.14c.09.27.24.52.34.8s0,.7.29,1c0,0,0,0,0,0v.23h0c-.12.08-.11.15,0,.23a.23.23,0,0,0,.13.16s0,0,0,0v.34c-.09.35.17.65.15,1,0,.1.13.07.15-.06a.14.14,0,0,0,0-.16.24.24,0,0,0,.06-.23.69.69,0,0,0,.17-.55l.08-.15h0c.07,0,.08-.08.08-.14h0a.23.23,0,0,0,.17-.15s0,0,.06,0,.14-.06.17-.13c.51-.47.53-.53.22-.87h0l-.08-.06-.07-.1c-.12-.27.15-.41.21-.62s.14-.19,0-.28-.16,0-.22.08-.32.13-.33,0c0-.39-.36-.42-.61-.55-.06,0,0-.16,0-.15.27.07.54-.3.8,0,0,.06.12.18.21.07a.16.16,0,0,0-.1-.25c-.24-.06-.24-.17-.13-.35s.06-.21-.07-.26-.21,0-.28.13c-.21.34-.32.35-.63.09v-.16c.2-.33.17-.93.84-.74.06,0,.12,0,.12-.12s-.05-.13-.13-.11c-.49.17-.46-.22-.53-.5s-.06-.67-.39-.87v0a.24.24,0,0,0-.19-.11h0a1.3,1.3,0,0,0-.52-.94v0l0,0c-.12-.29-.35-.53-.3-.88,0-.1-.08-.2-.2-.24h0c-.08-.35-.47-.49-.55-.84h0a3,3,0,0,0-.52-.55l-.06-.09a.44.44,0,0,0-.24-.31h0a.14.14,0,0,0-.1-.13l-.08-.09s0-.06-.07-.07l-.14-.09a2,2,0,0,0-.55-.37h0a.2.2,0,0,0-.13-.17c-.06-.1-.11-.2-.22-.24h0l-.09-.07h0a.67.67,0,0,0-.27-.33h0a2,2,0,0,0-.7-.76L39,66.63c-.27-.36-.72-.51-1-.79h0c-.21-.29-.55-.42-.79-.67h0s0-.07-.06,0L36.9,65s0-.1-.08-.12a11.59,11.59,0,0,0-2-.38.38.38,0,0,1-.23-.11c-.12-.08-.17-.23-.32-.25h0a1.7,1.7,0,0,0-1.08-.71c-.37,0-.76,0-1.13,0-.84-.1-1.66.19-2.52,0a3.62,3.62,0,0,0-1.89.17.3.3,0,0,1-.18,0,4.87,4.87,0,0,0-1.77-.22c-.18,0-.34,0-.43.19a.23.23,0,0,1-.29.13,3.19,3.19,0,0,0-1.23.08c-.17,0-.27.15-.15.29s0,.26-.14.34-.45,0-.55.27h0a8.58,8.58,0,0,0-1,.18,1.34,1.34,0,0,0-1,.51l-1,.4c-.11,0-.18.12-.17.23,0,.33-.13.39-.41.35a.11.11,0,0,0-.13.11h0a.8.8,0,0,1-.15.21,7.57,7.57,0,0,0-1.08,1.18c-.21.17-.48.31-.55.57a2,2,0,0,1-1,1.43h0a.51.51,0,0,0-.22.24l-.08.1c-.07,0-.1.06-.12.12l-.05.05h0v0l-.32.35c-.05.06-.14.12,0,.2l0,.15a.33.33,0,0,0,0,.24v.24A14.59,14.59,0,0,0,15,73a.51.51,0,0,1-.4.38c-.2,0-.19-.2-.25-.32-.15-.29-.22-.32-.58-.13a1.6,1.6,0,0,0,.29.19c.29.12.14.35.12.53s.08.48-.29.46a.05.05,0,0,0,0,0,.12.12,0,0,0-.11-.1c0-.13-.14-.2-.26-.11s0,.17,0,.25a.5.5,0,0,0,.44.32c.09.14.4,0,.35.26s-.26.06-.4.1-.06,0-.08,0c-.18.12-.32.14-.39-.12,0,0-.08-.06-.12-.06a.12.12,0,0,0-.1.14.5.5,0,0,1,0,.3.31.31,0,0,0,.09.44c.23.18.2-.1.28-.17s.28,0,.39.09.21.19.08.23c-.31.08-.26.28-.26.49a.3.3,0,0,1-.21.29c-.09,0-.18,0-.08.15.06.27-.27.22-.32.4l-.05.07c-.18.07-.23.24-.32.37s0,.34.16.43.28,0,.32-.21,0-.18.07-.26a.27.27,0,0,1,.31-.17.36.36,0,0,1,.33.23c0,.15,0,.24-.17.29s-.23.25-.42.26a.12.12,0,0,0-.11.13c0,.08.06.18.13.17.24,0,.3.21.46.31,0,.06,0,.12.09.14h0c.06.11.18.18.18.32l-.05.13a.05.05,0,0,0-.06,0c-.19.49-.53.53-1,.34-.05,0-.12,0-.19,0-.56,0-.59-.05-.53-.61,0-.34.12-.69-.22-1l0-.1V77.8l0-.18a2.2,2.2,0,0,0,0-1.14h0c0-.13-.11-.2-.19-.29V76c.29-.17,0-.49.17-.69h0c.28-.21.26-.53.28-.83a3.19,3.19,0,0,1,0-1,.89.89,0,0,0,0-.68c-.1-.24-.09-.45.19-.57s.24-.17.09-.33v-.39l.12-.18,0,0a.28.28,0,0,1,.43,0c.5.48.53.48,1,0h0c.12-.2,0-.53.32-.6s.3-.27.12-.48l0-.13a.67.67,0,0,0,.25-.3h0c.12-.15.27-.28.24-.5v-.15l.08-.16h0c.25-.06.61.16.72-.28a2.82,2.82,0,0,0,.59-1.26c.05-.07.13-.12.13-.23l0-.07a.53.53,0,0,0,.22-.31h0L17,66.7h0v0a2.25,2.25,0,0,0,1.56-.8c.13-.19.2-.45.37-.58a7.87,7.87,0,0,1,1.78-1c.46-.19,1-.06,1.4-.37a3.61,3.61,0,0,1,1.45-.66,1.49,1.49,0,0,0,.72-.33.61.61,0,0,1,.51-.11,7.58,7.58,0,0,0,1.65,0c.34,0,.65-.24,1-.17a2.92,2.92,0,0,0,1.63,0,.44.44,0,0,1,.16,0c.36,0,.73.26,1.1,0,0,0,.17,0,.25,0,.48.18,1-.06,1.45,0,.13,0,.33-.08.53-.06.46,0,.81.5,1.32.33.05,0,.13.08.19.12s.3.2.46.28c.86.4,1.81.61,2.65,1.07a.32.32,0,0,0,.49-.11c.05-.08.19-.11.22,0,.09.35.37.39.65.45a.2.2,0,0,1,.18.21c0,.24.07.37.35.27s.31.06.33.26-.06.17,0,.2.14,0,.19-.1a.39.39,0,0,0,.14-.38c0-.23.11-.3.29-.29a1.44,1.44,0,0,1,.67.16c.33.19.67.36,1,.53.12.06.36.29.31-.13,0-.1.08-.14.16-.1.37.15.75.3,1.12.47s.43.47.64.55a1.55,1.55,0,0,0,1.34-.09.52.52,0,0,1,.63,0,5.7,5.7,0,0,0,1.4.69l0,0h0s.09.1.14.12l2,.9c.66.27,1.28.62,2,.83a8.67,8.67,0,0,0,1.09.57.15.15,0,0,0,.16.09.85.85,0,0,0,.45.21l.1,0a1.56,1.56,0,0,0,.75.31l0,0h0c.15.12.29.17.44,0h0a.35.35,0,0,0,.31-.16h0c.19,0,.23-.15.21-.32a.45.45,0,0,1,.08-.42h.26a.22.22,0,0,0,.21.1s.06,0,.1,0a3,3,0,0,0,.75.39l.08,0,.61.48h0l.25.36v0a.37.37,0,0,0,.13.4h0c0,.18.18.26.33.33v0h0a.07.07,0,0,0,.1.06v0h0a.31.31,0,0,0,.28.13l.07,0c.1.15.25.12.39.12l.07,0a.25.25,0,0,0,.23.16h0a.2.2,0,0,0,.16.13.15.15,0,0,0,.19,0,.72.72,0,0,0,.43.12.15.15,0,0,0,.18,0,.25.25,0,0,0,.22.09v0h0a.21.21,0,0,0,.25.12c.12.11.22.28.35.3a3.27,3.27,0,0,1,1.37.8,1.12,1.12,0,0,0,.5.18.68.68,0,0,1,.59.43.65.65,0,0,0,.66.41A3.86,3.86,0,0,0,66,74a.25.25,0,0,0,.13-.26c0-.59-.12-1.17-.13-1.76,0-.39-.33-.58-.76-.52-.17,0-.21-.12-.24-.24a.61.61,0,0,0-.21-.4c-.43-.27-.7-.75-1.23-.88a.24.24,0,0,1-.15-.17,9.24,9.24,0,0,0-.82-1.15h0a.34.34,0,0,0-.21-.24h0a1.58,1.58,0,0,0-.54-.55h0a.86.86,0,0,0-.32-.36c-.06-.11-.09-.28-.18-.33A8.83,8.83,0,0,1,60,66a.23.23,0,0,0-.22-.14c-.12-.11-.27-.07-.41-.09a3.54,3.54,0,0,1-.19-.33c-.13-.32-.31-.5-.7-.42a.36.36,0,0,1-.44-.34.35.35,0,0,0-.43-.36c-.13,0-.26,0-.22-.18.13-.55-.26-.86-.54-1.23a.84.84,0,0,0-.66-.46c-.85-.06-1.15-.9-1.79-1.25,0,0,0-.05,0-.07a3.86,3.86,0,0,0-1.61-1.91h0a.65.65,0,0,0-.27-.25v0l0-.06,0,0a9.91,9.91,0,0,0-1-.87h0c0-.13-.12-.18-.23-.23h0a.06.06,0,0,0-.07-.07h0a4.27,4.27,0,0,0-.93-.92h0a.33.33,0,0,0-.23-.23h0a1.82,1.82,0,0,0-.53-.54h0A1.45,1.45,0,0,0,49,55.5h0a.36.36,0,0,0-.22-.23h0l-.07-.07h0a.23.23,0,0,0-.14-.15h0a.25.25,0,0,0-.18-.18h0a.06.06,0,0,0-.07-.07h0a1.49,1.49,0,0,0-.42-.48h0a.67.67,0,0,0-.3-.3h0c0-.08-.05-.14-.14-.15h0a.29.29,0,0,0-.18-.19h0l-.07-.07h0a1.2,1.2,0,0,0-.43-.49h0c0-.11-.1-.15-.17-.21l-.08-.08h0l0-.06c-.5-.69-1.11-1.3-1.57-2a.68.68,0,0,0-.66-.33.37.37,0,0,1-.32-.18c-.23-.34-.29-.76-.6-1.06S43,48.17,42.41,48a.28.28,0,0,1-.19-.31c.05-.27-.14-.37-.32-.46s-.54-.24-.5-.63a.13.13,0,0,0-.15-.14c-.18,0-.26-.17-.4-.21h0a1.13,1.13,0,0,0-.91-.55c-.32,0-.42-.18-.35-.45a.65.65,0,0,0-.22-.68l-.08-.08,0-.11h0c0-.07,0-.12-.11-.12l0,0h0a.92.92,0,0,1-.49-.48,1,1,0,0,0-.62-.5h0c0-.05,0-.06-.06-.06v0l-.22-.3a4.61,4.61,0,0,1-1.24-1.09,1.08,1.08,0,0,0-.43-.49l0,0,0,0a.19.19,0,0,0-.15-.16l0,0,0,0a1.24,1.24,0,0,0-.41-.41.05.05,0,0,0-.06,0,.23.23,0,0,0-.17-.16l0-.06c0-.07-.05-.08-.11-.09h0a3.83,3.83,0,0,0-1.24-.91h0L33.52,39l0-.07s0,0,0-.06h0a.67.67,0,0,0-.29-.46h0a.84.84,0,0,0-.53-.3h0a.33.33,0,0,0-.32-.18s0,0-.05,0-.09-.08-.16-.1h0a.22.22,0,0,0-.14-.16l-.14-.16h0c-.18-.28-.51-.37-.74-.6a.26.26,0,0,0-.32,0,2.21,2.21,0,0,1-1.38.2,1.22,1.22,0,0,0-1,.41v0a.79.79,0,0,0-.37.33h0c-.07,0-.12,0-.14.09h0a.38.38,0,0,0-.24.22h0a.19.19,0,0,0-.16.15l-.08.06h0v0h0v0l-.6.52h0a.69.69,0,0,0-.4.29h0l-1.17.76h0a2.72,2.72,0,0,0-.83.79l-.09,0h0v0h0v0a2,2,0,0,0-.71.65l-.07,0c-.28.13-.63.13-.82.44h0v0c-.27.08-.23.32-.27.52h0v0c-.14,0-.32,0-.4.18h0c-.3.06-.61.12-.73.47h0v0h0l0,0-.07.08a1.44,1.44,0,0,0-.48.47l-.06.07-.24.23h0a.41.41,0,0,0-.23.16h0a1.63,1.63,0,0,0-.85.53c-.19.25-.25.65-.7.62,0,0-.08.08-.08.12,0,.31-.21.4-.4.54a1,1,0,0,0-.41.53,2.36,2.36,0,0,0-1.32.86c-.16.22-.28.49-.64.45-.1,0-.17.08-.2.2s-.09.18-.18.16c-.3-.07-.41.13-.52.34s-.31.28-.49.4a5.42,5.42,0,0,0-1.35,1h0a.19.19,0,0,0-.16.14h0a.75.75,0,0,0-.4.3h0c-.1,0-.22.07-.26.19h0v0a.16.16,0,0,0-.16.12h0a31.94,31.94,0,0,1-3,1.87c-.18.09-.41.08-.53.28,0,0,0,0,0,0a.27.27,0,0,0-.24.15s0,0-.07,0c-.19.07-.27.24-.37.4s-.19.3-.4.32a1.16,1.16,0,0,0-.78.49l-.09.07h0s0,0,0,0c-.71.49-1.36,1-2,1.58h0c-.23.19-.55.32-.52.7l-.09.09a1.66,1.66,0,0,0-1,.46h0a.21.21,0,0,0-.17.13h0a1.06,1.06,0,0,0-.46.38h0a.57.57,0,0,0-.29.24h0c-.73.67-1.52,1.25-2.3,1.85h0A.24.24,0,0,0-.93,60h0a3.17,3.17,0,0,0-.68.47h0a.15.15,0,0,0-.16.14h0a.83.83,0,0,0-.42.27v0a4.8,4.8,0,0,0-1.06.79h0A18.14,18.14,0,0,0-4.8,62.93l-.08.07c-.06,0-.13,0-.15.08a.19.19,0,0,0-.14.12h0c-.24.06-.52.13-.63.37a.64.64,0,0,1-.44.38,1.5,1.5,0,0,0-.39.22h0c-.11,0-.22,0-.23.16h0l-.31.62h0c-.4.18-.87.26-1.06.75a1.94,1.94,0,0,1-.82.88,8.24,8.24,0,0,0-1.36,1,8.08,8.08,0,0,1-1,.91l-.82.66c-.06,0-.12,0-.14.06h0a2.21,2.21,0,0,0-.57.49h0a.83.83,0,0,0-.39.3,3.63,3.63,0,0,1-1,.79,3.22,3.22,0,0,0-1,.94h0l-1.88,1.5h0a9.18,9.18,0,0,0-1.08.77,7.12,7.12,0,0,1-1,.92h0a.83.83,0,0,0-.33.34h0s-.08,0-.07.07h0a1.12,1.12,0,0,0-.37.38h0a.73.73,0,0,0-.42.27h0a1.18,1.18,0,0,0-.68.49h0a.18.18,0,0,0-.18.15.1.1,0,0,0-.12.09,1.84,1.84,0,0,0-.62.62c-.4.57-.35.91.17,1.18a1.92,1.92,0,0,1,.65.58,6.83,6.83,0,0,0,1.86,1.69,4.72,4.72,0,0,0,2.2,1,1.19,1.19,0,0,0,.46,0,3.45,3.45,0,0,0,1.56-1.32,1.23,1.23,0,0,1,.59-.51c.44-.21.94-.38,1.14-.9l.48-1.29h0a.67.67,0,0,0,.4-.6c0-.12,0-.29.17-.3s.18.12.23.25a1.54,1.54,0,0,0,.17.34.23.23,0,0,0,.23.11,1.5,1.5,0,0,0,.69-.82.33.33,0,0,1,.31-.37,3.29,3.29,0,0,0,.53-.1c.26-.09.54-.18.59-.53h0c.23-.08.43-.2.44-.48h0s.06,0,0-.06l0-.11.07-.13h0a.3.3,0,0,0,.19-.23l.19-.27,0,0h0v0c.16-.11.3-.23.52-.16a.21.21,0,0,0,.29-.17l0,0h0a.13.13,0,0,0,.09-.18l.19-.18c.14,0,.23-.09.32-.19h0a.13.13,0,0,0,.13-.11h0A.13.13,0,0,0-7,73.27h0a.3.3,0,0,0,.15-.18.82.82,0,0,0,.29-.74c0-.09,0-.24.06-.28a11.88,11.88,0,0,0,1-.73.27.27,0,0,1,.26,0c.54.22,1-.12.86-.71A1.4,1.4,0,0,1-4.31,70c.07-.24.27-.34.47-.19.36.28.45.1.5-.23a1.35,1.35,0,0,0,.06-.53l0-.15.39-.39a.45.45,0,0,0,.31-.1c.06,0,.12,0,.14-.07a.26.26,0,0,0,.24,0q.17,0,.12-.18a0,0,0,0,0,0-.06v0h0v0a.4.4,0,0,0,.25-.21h0a.26.26,0,0,0,.25-.12h0c.12,0,.26-.06.34-.19h0a.48.48,0,0,0,.28-.34c0-.24.13-.36.41-.37a.24.24,0,0,0,.13-.44c-.18-.14-.09-.22,0-.33h0c.13-.09.2-.27.4-.25a1.59,1.59,0,0,0,1.13-.44c0-.26.37-.42.25-.74v-.15c.09-.17.18-.38.31,0s.19.23.32,0l.25-.33h0a.41.41,0,0,0,.43-.36c0-.06,0-.15.11-.13.38.12.4-.19.49-.41h0a3.35,3.35,0,0,0,.61-.75v0c.52,0,.71-.53,1.08-.77l0,0a1.45,1.45,0,0,0,.53-.62h0a.44.44,0,0,0,.23-.3h0a.46.46,0,0,0,.25-.28h0c.35-.32.86-.45,1.1-.9h0a.6.6,0,0,0,.34-.34h0l.08-.07h0a1,1,0,0,0,.4-.35H8a.69.69,0,0,0,.31-.3h0a.25.25,0,0,0,.18-.19h0l.07-.06h0A.41.41,0,0,0,8.84,58a15.69,15.69,0,0,1,1.51-1.21c.16-.13.26-.31.51-.26s.2-.07.2-.2,0-.2,0-.23c.27-.2.62-.6.82-.54.38.13.53,0,.75-.24s.27-.26.45-.05.37.29.42-.12c0,0,.06-.08.1-.11a3.22,3.22,0,0,0,.9-1.2.24.24,0,0,1,.21-.15c.31,0,.41-.21.5-.45s.07-.24.14-.27c.4-.15.3-.35.08-.58a.2.2,0,0,1,0-.28c.09-.12.21-.07.31,0s.34.22.52.32.4.12.44-.26l0-.16a5.68,5.68,0,0,1,.6-.93h0c.19,0,.47.35.53-.14v0c.05,0,.06,0,.05-.06h0v0c.19-.09.16-.26.15-.42s0-.46.32-.44a.36.36,0,0,0,.3-.26h0l.07-.06.09-.06c.32,0,.35-.26.37-.52s-.07-.39.18-.38.27.21.29.4a.53.53,0,0,0,.22.49h0c.14.2.28.35.5.09h0c.27-.17.19-.36,0-.56v-.32c.09-.09,0-.16,0-.2s-.15-.25-.08-.4h0c.24-.25.46-.53.85-.55,0,0,0,0,0-.06h0v0c.16,0,.27-.26.45-.13s0,.27,0,.41-.09.37.11.49.33,0,.45-.11a5.36,5.36,0,0,0,.64-.58,4.8,4.8,0,0,0,.82-1.29c.05-.19,0-.24-.19-.22-.34,0-.4-.14-.33-.42h0a1.77,1.77,0,0,1,.94-.06c.4.08.46,0,.45-.35s0-.51.26-.65h0l0,0c.2,0,.45.07.62-.15a6.85,6.85,0,0,0,.81-1.18,1.51,1.51,0,0,1,.69-.62,1.12,1.12,0,0,0,.72-.73c0-.12.1-.21.24-.2s.16.1.2.2a.57.57,0,0,0,.73.37,2.82,2.82,0,0,1,1.44-.1,2.93,2.93,0,0,1,2,.77c.2.23.38.49.61.71.58.54,1.4.82,1.76,1.6,0,.08.17.11.25.18.38.35.91.56,1.05,1.16a.86.86,0,0,0,.38.43c.31.21.62.44.93.67h0c.07.18.12.37.33.45a3.49,3.49,0,0,0,.84,1c.39.4.9.67,1.27,1.09.75.86,1.63,1.6,2.37,2.48a.35.35,0,0,0,.31.23l.31.15c.09.12.19.24.29.35.74.77,1.47,1.55,2.23,2.3s1.6,1.49,2.41,2.23l.35.49h0c.19.37.57.51.88.74h0a.37.37,0,0,0,.21.18h0c0,.06,0,.11.11.12h0a.72.72,0,0,0,.36.33h0c0,.08.08.14.16.16h0a.43.43,0,0,0,.24.22.39.39,0,0,0,.23.24.6.6,0,0,0,.29.32h0c.07.23.28.33.44.48h0a.76.76,0,0,0,.28.31v0h0s0,.07.06.07h0c.17.27.32.57.69.62h0l.49.42h0c.11.16.24.3.34.46s.19.22.09.35-.26.06-.38,0a24.65,24.65,0,0,0-3.89-1.38c-.37-.11-.75-.39-1.16-.06,0,0-.2,0-.29,0a1.3,1.3,0,0,1-.65-.51.49.49,0,0,0-.86-.11c-.1.1-.23.17-.34.08a2.53,2.53,0,0,0-.56-.25,2.38,2.38,0,0,0-2-.33.42.42,0,0,1-.27,0c-1-.24-1.85-.66-2.77-1-.76-.28-1.49-.65-2.29-.86a9.76,9.76,0,0,1-2.76-.66.39.39,0,0,0-.26,0c-.59.12-1.13-.17-1.71-.15A8.71,8.71,0,0,1,31,58a8.7,8.7,0,0,0-1.77,0,2.5,2.5,0,0,0-1,.08h-.39a9.08,9.08,0,0,0-1.28,0,2.24,2.24,0,0,0-1.49.27c-.15.1-.32.06-.47.09a.57.57,0,0,0-.53.14h-.25l-.05,0c-.6,0-1.16.37-1.78.17a.08.08,0,0,0-.06,0c-.18.31-.43.2-.68.13a.48.48,0,0,0-.37,0l-.74.37h0c-.19.1-.44.09-.58.29l-.12,0a3.5,3.5,0,0,1-.66.09c-.44,0-.72.46-1.17.57-.11,0-.21.14-.37.09s-.35-.17-.44,0-.23.32-.46.16c-.05,0-.09,0-.14,0a2,2,0,0,1-1.07.33.58.58,0,0,0-.61.31l-.16,0-.46,0c-.41,0-.83-.07-1,.41-.06.13-.17.06-.27.06-.29,0-.55.29-.48.51s-.07.34-.31.3-.45-.08-.6.17h0a.73.73,0,0,0-.39.3h0a.17.17,0,0,0-.15.15Zm37.91,51a.46.46,0,0,1-.24-.35c-.06-.34-.14-.67-.23-1-.22-.94-.45-1.89-.68-2.84-.3-1.26-.59-2.52-.88-3.78-.16-.66-.36-1.31-.47-2-.06-.34-.18-.45-.52-.45-1.89,0-3.78,0-5.67,0-.27,0-.41.09-.38.38,0,.1,0,.21,0,.31,0,5.16,0,10.33,0,15.49,0,.26.08.39.35.39h2.85c.2,0,.28-.09.28-.28s0-.25,0-.38c0-3.86,0-7.71,0-11.56a1.34,1.34,0,0,1,0-.2c0-.07,0-.16.11-.17s.14,0,.18.12a1.25,1.25,0,0,1,.09.25c.34,1.39.67,2.79,1,4.18s.77,3,1.15,4.54c.27,1.07.54,2.14.8,3.21a.31.31,0,0,0,.34.28h3.2c.19,0,.28-.06.32-.25.09-.37.19-.74.29-1.11.29-1.11.61-2.2.85-3.31s.51-2.07.75-3.1c.17-.71.35-1.42.52-2.12s.42-1.67.64-2.5c0-.1.06-.26.21-.23s.08.18.09.27a1.2,1.2,0,0,1,0,.19c0,2.1,0,4.19,0,6.29,0,1.81,0,3.62,0,5.43,0,.35.1.46.47.45,1,0,2,0,3,0,.29,0,.41-.1.38-.38,0-.11,0-.21,0-.31V105.1c0-.3,0-.59,0-.88s-.07-.44-.41-.44c-1.88,0-3.75,0-5.63,0-.35,0-.47.14-.52.46-.13.7-.27,1.41-.43,2.11-.37,1.7-.73,3.41-1.13,5.1A26.5,26.5,0,0,1,48.45,114.19ZM-4,103.82v0c-1.13,0-2.26,0-3.39,0-.34,0-.37.16-.37.42q0,7.89,0,15.76c0,.31.1.4.4.4q2.72,0,5.43,0a13.38,13.38,0,0,0,4.17-.57,6.45,6.45,0,0,0,3.09-2A8.2,8.2,0,0,0,7,112.88a11.48,11.48,0,0,0-.13-2.68,6.7,6.7,0,0,0-3.7-5.43,10.28,10.28,0,0,0-3.85-.94C-1.75,103.75-2.87,103.82-4,103.82Zm33.34,0h0c-.71,0-1.42,0-2.12,0a.54.54,0,0,0-.62.47c-.39,1.32-.9,2.59-1.33,3.89s-1,2.67-1.42,4c-.37,1-.72,2.1-1.09,3.15-.55,1.57-1.11,3.14-1.66,4.7-.09.24-.05.36.23.36,1.15,0,2.29,0,3.43,0a.36.36,0,0,0,.4-.28c.25-.81.54-1.6.76-2.41.12-.41.32-.6.72-.6,1.71,0,3.42,0,5.12,0a.46.46,0,0,1,.46.38c.26.87.55,1.73.83,2.6.07.23.23.27.44.27,1.3,0,2.59,0,3.89,0,.34,0,.32-.18.25-.39s-.23-.54-.33-.82c-.42-1.19-.84-2.39-1.27-3.58-.56-1.57-1.13-3.13-1.69-4.69L32,104.16a.48.48,0,0,0-.53-.38C30.74,103.81,30,103.79,29.35,103.79ZM8.48,112h0v7.36c0,.95,0,.95.95.95h9.9c.26,0,.44,0,.42-.34-.08-.86,0-1.72,0-2.58,0-.28-.12-.35-.38-.35-2.13,0-4.26,0-6.39,0-.36,0-.51-.1-.51-.48,0-.86,0-1.72,0-2.58,0-.54,0-.54.52-.54,1.93,0,3.86,0,5.78,0,.35,0,.44-.11.43-.44,0-.75,0-1.49,0-2.24,0-.35-.09-.44-.42-.43H13c-.36,0-.5-.12-.49-.5,0-.77,0-1.54,0-2.31,0-.62,0-.66.64-.66h6c.21,0,.36,0,.36-.28,0-.86,0-1.72,0-2.58,0-.21-.07-.31-.32-.31H8.89c-.3,0-.41.09-.41.39Zm13.19,32.14H-12.89c-.82,0-.82,0-.81.8,0,.65,0,.65.68.65H56.81a.25.25,0,0,0,.27-.26v-1c0-.18-.13-.2-.27-.2s-.48,0-.73,0ZM-9.59,112.07h0c0-2.63,0-5.26,0-7.89,0-.29-.09-.39-.38-.39h-3.38c-.25,0-.39.11-.35.34a5,5,0,0,1,0,.77q0,7.52,0,15c0,.31.07.45.4.45,1.11,0,2.23,0,3.35,0,.28,0,.38-.11.38-.39C-9.59,117.34-9.59,114.7-9.59,112.07Zm34.2,28.63c-.05-.14-.09-.22-.12-.3-.29-.88-.6-1.77-.88-2.66-.12-.37-.41-.21-.63-.24s-.22.08-.22.24c0,1.11,0,2.23,0,3.35,0,.17.07.21.23.22s.27-.09.27-.29c0-.89,0-1.78,0-2.66.37.86.68,1.74,1,2.62.06.17.08.33.34.33s.28-.18.33-.34c.18-.48.33-1,.51-1.45a7.54,7.54,0,0,1,.47-1.2V141c0,.18,0,.33.24.33s.26-.13.26-.32c0-1,0-2.05,0-3.08,0-.35-.1-.44-.44-.42s-.27.13-.33.3C25.3,138.74,25,139.69,24.61,140.7ZM.76,132c.13,0,.12.11.14.17l.87,2.54c.05.16.11.25.32.25s.25-.09.3-.25c.26-.78.54-1.55.82-2.32a.52.52,0,0,1,.18-.33c0,.9,0,1.76,0,2.62,0,.18,0,.28.25.28s.27-.08.27-.29c0-1.05,0-2.11,0-3.16,0-.13.1-.35-.16-.35s-.49-.11-.59.24-.31.9-.47,1.34-.36,1-.57,1.62c-.06-.18-.1-.27-.13-.37-.29-.87-.59-1.74-.87-2.61-.13-.38-.43-.19-.65-.21s-.17.2-.17.33c0,1.05,0,2.1,0,3.15,0,.18,0,.32.25.31s.23-.16.23-.32Zm28.62,7.28.06-.09a.85.85,0,0,0,.33-1,1,1,0,0,0-.9-.67c-.5-.06-1,0-1.5,0-.18,0-.25.06-.25.25,0,1.1,0,2.2,0,3.31,0,.19.07.25.25.25.51,0,1,0,1.54,0a1.06,1.06,0,0,0,.89-.45C30.18,140.27,30,139.74,29.38,139.29Zm6.68-.82.07,0,.29.44c.49.74,1,1.47,1.47,2.22a.47.47,0,0,0,.52.2c.27,0,.16-.26.16-.4,0-1,0-2.09,0-3.13,0-.19,0-.28-.26-.28s-.26.1-.25.29c0,.34,0,.69,0,1v1.62l-.25-.34c-.53-.8-1.08-1.59-1.6-2.4a.44.44,0,0,0-.52-.19c-.23.05-.12.25-.12.39,0,1,0,2,0,3,0,.16-.08.37.23.37s.26-.17.26-.35C36.05,140.13,36.06,139.3,36.06,138.47ZM-8.58,127.79c-.12-.17-.18-.24-.22-.31-.54-.8-1.08-1.59-1.59-2.4a.48.48,0,0,0-.55-.23c-.26,0-.15.26-.15.4,0,1,0,2,0,3.08,0,.19,0,.3.27.31s.24-.14.24-.32v-2.23c0-.09-.06-.21.09-.28s.09.12.13.19c.54.82,1.1,1.63,1.63,2.46.15.23.36.18.54.16s.11-.23.11-.35v-3.12c0-.18,0-.31-.24-.32s-.25.14-.25.31Zm44.82-.86.15-.08c.57-.2.86-.58.8-1.06a1,1,0,0,0-1.07-.93c-.57,0-1.13,0-1.7,0-.18,0-.24,0-.24.23,0,1.11,0,2.21,0,3.32,0,.18,0,.25.23.24s.28,0,.27-.25,0-.77,0-1.15c0-.09,0-.2.09-.26a1.37,1.37,0,0,1,1.2.31,7.66,7.66,0,0,1,.63,1,.64.64,0,0,0,.86.34A6.41,6.41,0,0,0,36.24,126.93Zm-18.09,8a6.91,6.91,0,0,0-1.22-1.66,1,1,0,0,1,.16-.07,1,1,0,0,0,.78-1.12c-.07-.53-.39-.83-1-.87s-1.16,0-1.73,0c-.18,0-.25.05-.24.24,0,1.11,0,2.21,0,3.31,0,.21.08.27.27.26s.27-.06.26-.27c0-.38,0-.77,0-1.15,0-.21.06-.24.25-.26a1.16,1.16,0,0,1,1.27.65c.13.24.31.44.43.69S17.77,135,18.15,134.92ZM35.78,133H35.2c-.19,0-.24.06-.24.24s.1.23.26.22a2.36,2.36,0,0,1,.46,0c.12,0,.33-.09.34.12s.12.47-.08.65a1.49,1.49,0,0,1-2.23-.44,1.93,1.93,0,0,1,.06-1.61,1.2,1.2,0,0,1,1.13-.66,1,1,0,0,1,1,.59c.1.25.25.23.42.16s.07-.26,0-.39c-.34-1-2.06-1.07-2.81-.26a2.27,2.27,0,0,0-.24,2.52,2,2,0,0,0,2.08.84c.85-.15,1.16-.47,1.16-1.19S36.57,133,35.78,133ZM5.33,139.4c0,.54,0,1.08,0,1.62,0,.18,0,.3.25.29.51,0,1,0,1.54,0a1.32,1.32,0,0,0,1.21-1,2.62,2.62,0,0,0,.07-1.59A1.4,1.4,0,0,0,7,137.53c-.46-.05-.92,0-1.38,0-.22,0-.29.06-.29.28C5.34,138.32,5.33,138.86,5.33,139.4Zm46.26-12.71c-.19,0-.38,0-.57,0s-.24.07-.24.25.07.22.23.21a2.78,2.78,0,0,1,.5,0c.12,0,.33-.1.34.11s.13.5-.08.66a1.46,1.46,0,0,1-2.28-.53,2,2,0,0,1,0-1.43,1.18,1.18,0,0,1,1.08-.74,1,1,0,0,1,1.16.62c.09.27.26.14.4.11s.08-.21,0-.31c-.37-1.06-2.11-1.12-2.85-.33a2.3,2.3,0,0,0-.26,2.49,1.92,1.92,0,0,0,2,.88,2.16,2.16,0,0,0,1.18-.53c.19-.18.07-.46.07-.7C52.39,126.69,52.39,126.69,51.59,126.69Zm-35.18,0h0c0,.54,0,1.08,0,1.62,0,.18,0,.29.24.28.5,0,1,0,1.5,0a1.33,1.33,0,0,0,1.24-.89,2.58,2.58,0,0,0,.14-1.48,1.49,1.49,0,0,0-1.6-1.39c-.41,0-.82,0-1.23,0-.26,0-.29.1-.29.32C16.42,125.68,16.41,126.2,16.41,126.73Zm32.17,12.66c0,.55,0,1.1,0,1.66,0,.16,0,.26.23.26h2.35c.19,0,.24-.07.24-.25s-.08-.22-.24-.21c-.37,0-.74,0-1.11,0-1,0-1,0-1-1,0-.24.07-.31.3-.3h1.54c.18,0,.25-.05.25-.24s-.08-.24-.25-.24c-.34,0-.67,0-1,0-.87,0-.86,0-.83-.88,0-.21.07-.26.26-.26H51c.15,0,.31,0,.31-.21s-.13-.26-.32-.26c-.7,0-1.41,0-2.11,0-.26,0-.3.1-.3.32C48.59,138.34,48.58,138.86,48.58,139.39ZM30.36,126.72c0,.53,0,1.06,0,1.58,0,.24,0,.35.31.33s.82,0,1.23,0a1.46,1.46,0,0,0,1.53-1.19,2.75,2.75,0,0,0,.06-1,1.53,1.53,0,0,0-1.65-1.55c-.39,0-.79,0-1.19,0-.25,0-.3.09-.29.32C30.37,125.67,30.36,126.2,30.36,126.72ZM4.68,133.08c0,.54,0,1.08,0,1.61,0,.18,0,.28.24.28H7.27c.14,0,.24,0,.24-.21s0-.26-.23-.26H6.16c-1,0-1,0-1-1,0-.2.06-.26.26-.26.53,0,1,0,1.58,0,.17,0,.25,0,.25-.23s-.09-.24-.26-.23H6c-.87,0-.86,0-.83-.87,0-.22.07-.29.29-.28H7.17c.18,0,.25,0,.25-.24s-.06-.24-.25-.24H4.94c-.2,0-.27.06-.26.26C4.69,132,4.68,132.53,4.68,133.08Zm14,0h0c0,.54,0,1.08,0,1.62,0,.22.05.29.28.29h2.31c.16,0,.26,0,.25-.23s-.05-.24-.25-.24c-.37,0-.74,0-1.11,0-1,0-1,0-1-1,0-.25.1-.29.32-.29.51,0,1,0,1.54,0,.14,0,.24,0,.23-.2s0-.27-.23-.26H20c-.89,0-.89,0-.86-.89,0-.2.07-.26.27-.26h1.69c.16,0,.27,0,.27-.22s-.08-.26-.27-.26c-.73,0-1.47,0-2.2,0-.22,0-.29.07-.28.29C18.65,132,18.64,132.53,18.64,133.06Zm-25.85,8.25H-6c.19,0,.24-.07.24-.25s-.07-.22-.23-.21c-.38,0-.75,0-1.12,0-1,0-1,0-1-1,0-.28.11-.32.34-.31.5,0,1,0,1.5,0,.16,0,.24,0,.23-.21s0-.27-.22-.26-.7,0-1,0c-.82,0-.81,0-.81-.83,0-.26.09-.32.33-.31h1.58c.16,0,.3,0,.3-.21s-.12-.26-.31-.26c-.7,0-1.41,0-2.12,0-.25,0-.29.1-.28.32,0,1.06,0,2.13,0,3.19,0,.28.1.32.34.31Zm39.33-1.93V141c0,.19,0,.28.24.28h2.27c.18,0,.29,0,.29-.25s-.16-.21-.31-.21h-1c-1,0-1,0-1-1,0-.23.08-.29.29-.28.5,0,1,0,1.5,0,.18,0,.28,0,.28-.24s-.13-.23-.29-.22h-1c-.85,0-.84,0-.81-.86,0-.21.07-.29.29-.28h1.65c.16,0,.27,0,.27-.22s0-.27-.26-.26c-.73,0-1.47,0-2.2,0-.2,0-.26.07-.26.27C32.13,138.3,32.12,138.84,32.12,139.38ZM14,139.43a1.79,1.79,0,0,0-1.77-2,2,2,0,0,0,0,3.93A1.78,1.78,0,0,0,14,139.43ZM25.58,133a1.79,1.79,0,0,0-1.85-1.92A1.85,1.85,0,0,0,22,133.18a1.82,1.82,0,1,0,3.63-.16Zm3.38.07A1.76,1.76,0,0,0,30.77,135a1.8,1.8,0,0,0,1.81-1.95,1.84,1.84,0,0,0-1.81-2A1.79,1.79,0,0,0,29,133.09Zm10.61-4.4a1.8,1.8,0,0,0,1.85-2,1.84,1.84,0,1,0-3.66,0A1.81,1.81,0,0,0,39.57,128.69Zm-28.82-2a1.93,1.93,0,0,0,.8,1.66A1.85,1.85,0,0,0,14,128a2.23,2.23,0,0,0-.27-2.84,1.78,1.78,0,0,0-2-.22A1.81,1.81,0,0,0,10.75,126.74Zm34,0a1.82,1.82,0,1,0,3.63.08,1.82,1.82,0,1,0-3.63-.08ZM16.05,137.44a1.8,1.8,0,0,0-1,.27.94.94,0,0,0,.06,1.56,2.19,2.19,0,0,0,.6.23,9.7,9.7,0,0,1,1,.28.53.53,0,0,1,.12.95,1.18,1.18,0,0,1-1.73-.5c-.09-.26-.25-.18-.39-.16s-.14.17-.11.29a1.17,1.17,0,0,0,.93.92,1.74,1.74,0,0,0,1.7-.29,1,1,0,0,0-.3-1.68c-.43-.19-.91-.24-1.36-.39a.46.46,0,0,1-.37-.44.52.52,0,0,1,.28-.47,1,1,0,0,1,1.46.48c.1.24.27.08.39.08s.1-.15.08-.25A1.23,1.23,0,0,0,16.05,137.44Zm37.45,3.94.37,0a1.18,1.18,0,0,0,1-1c0-.49-.24-.85-.83-1-.38-.12-.77-.2-1.15-.32-.2-.06-.37-.16-.38-.42a.51.51,0,0,1,.3-.49,1,1,0,0,1,1.42.44c.1.24.27.15.41.12s.08-.19.05-.29a1,1,0,0,0-.67-.72,1.93,1.93,0,0,0-1.14-.06,1.07,1.07,0,0,0-.88,1c0,.44.28.76.8.94a10.61,10.61,0,0,1,1.25.38.51.51,0,0,1,0,.94,1.16,1.16,0,0,1-1.71-.54c-.09-.26-.25-.14-.37-.14s-.15.15-.12.29A1.46,1.46,0,0,0,53.5,141.38Zm-42.12-8.32c0,.55,0,1.1,0,1.65,0,.21.06.26.26.26H14c.16,0,.23,0,.23-.21s0-.27-.23-.26c-.37,0-.74,0-1.11,0-1,0-1,0-1-1,0-.22.07-.29.29-.29.51,0,1,0,1.54,0,.17,0,.25,0,.25-.23s-.08-.24-.25-.23h-1c-.85,0-.84,0-.83-.85,0-.23.06-.31.31-.3.55,0,1.1,0,1.65,0,.16,0,.27,0,.26-.21s-.08-.26-.27-.26c-.72,0-1.44,0-2.16,0-.26,0-.29.1-.28.32C11.39,132,11.38,132.53,11.38,133.06Zm-15.19,4.38-.24,0c-.66.09-1,.42-1.09.94s.24.86.91,1.07c.35.11.72.18,1.06.31a.51.51,0,0,1,.23.88,1.21,1.21,0,0,1-1.8-.37c-.08-.25-.21-.29-.41-.22s-.1.28-.06.42a1.47,1.47,0,0,0,1.59.88,1.28,1.28,0,0,0,1.33-1c.06-.59-.27-.94-1.08-1.17-.31-.08-.62-.16-.93-.26a.41.41,0,0,1-.35-.43.53.53,0,0,1,.37-.49,1,1,0,0,1,1.36.5c.11.23.26.09.39.09s.11-.16.09-.25A1.28,1.28,0,0,0-3.81,137.44Zm-2-8.75a1.42,1.42,0,0,0,.72-.14,1.06,1.06,0,0,0,.67-1,1,1,0,0,0-.68-.93c-.44-.15-.88-.25-1.32-.38a.45.45,0,0,1-.37-.4.48.48,0,0,1,.22-.46,1,1,0,0,1,1.5.41c.11.25.29.12.42.11s.09-.18.07-.27a1,1,0,0,0-.54-.67,1.83,1.83,0,0,0-1.34-.13,1.08,1.08,0,0,0-.84.94,1,1,0,0,0,.75,1c.19.07.39.11.59.17a4.32,4.32,0,0,1,.72.23.52.52,0,0,1,.16.86,1.21,1.21,0,0,1-1.8-.36c-.09-.25-.21-.31-.41-.24s-.1.29-.06.42C-7.21,128.39-6.69,128.69-5.84,128.69Zm26.08-2h0c0,.56,0,1.11,0,1.66,0,.19,0,.27.24.27h2.35c.16,0,.23,0,.23-.22s-.06-.24-.24-.24c-.39,0-.77,0-1.16,0-1,0-1,0-.93-1,0-.25.09-.3.31-.29h1.54c.18,0,.25,0,.26-.24s-.08-.23-.25-.23h-1c-.87,0-.87,0-.82-.89,0-.21.07-.27.27-.26.56,0,1.13,0,1.69,0,.14,0,.27,0,.27-.2s-.07-.27-.26-.26c-.73,0-1.46,0-2.19,0-.24,0-.28.09-.27.3C20.25,125.65,20.24,126.18,20.24,126.7Zm7.88.06V125.1c0-.17,0-.27-.24-.27s-.27.08-.27.27,0,.62,0,.92,0,.4-.35.37a10.76,10.76,0,0,0-1.27,0c-.25,0-.35,0-.33-.31s0-.64,0-1-.07-.28-.29-.29-.24.11-.24.29c0,1.08,0,2.15,0,3.23,0,.18,0,.29.24.28s.3,0,.29-.28c0-.42,0-.85,0-1.27,0-.18,0-.25.23-.24h1.47c.18,0,.24,0,.24.24,0,.43,0,.87,0,1.31,0,.22.11.23.28.24s.22-.09.22-.25ZM4.53,139h0c0-.39,0-.77,0-1.16,0-.16,0-.3-.23-.3s-.27.11-.27.3q0,1,0,2c0,.63-.2,1-.62,1.06a.94.94,0,0,1-1.31-1c0-.7,0-1.39,0-2.08,0-.2-.06-.28-.26-.28s-.27,0-.27.24c0,.81,0,1.62,0,2.42a1.29,1.29,0,0,0,1.52,1.22,1.28,1.28,0,0,0,1.4-1.3C4.54,139.69,4.53,139.32,4.53,139ZM7,126.27H7c0-.34,0-.67,0-1,0-.16.16-.42-.23-.43s-.24.29-.25.46c0,.7,0,1.41,0,2.11s-.33.85-1,.83a.8.8,0,0,1-.88-.89c0-.76,0-1.51,0-2.27,0-.19-.09-.24-.26-.23s-.27,0-.27.21c0,.82,0,1.65,0,2.47a1.14,1.14,0,0,0,1,1.14,2.39,2.39,0,0,0,1,0,1.18,1.18,0,0,0,1-1.12C7,127.11,7,126.69,7,126.27ZM43.51,137.5c-.15,0-.29,0-.36.16-.44,1.14-.88,2.29-1.31,3.43,0,.08-.1.2,0,.21s.41.07.49-.23.15-.71.37-.85.64-.05,1-.06H44a.34.34,0,0,1,.44.3c0,.22.16.43.23.64s.35.24.52.19,0-.24,0-.34c-.42-1.07-.86-2.13-1.28-3.2C43.78,137.56,43.7,137.47,43.51,137.5ZM38.3,135c.24,0,.48.14.61-.19s.11-.75.38-.89a2.44,2.44,0,0,1,1,0,.91.91,0,0,0,.23,0c.21,0,.32.07.38.28s.18.48.26.72.34.16.49.13,0-.2,0-.29c-.43-1.07-.86-2.13-1.28-3.2a.37.37,0,0,0-.41-.3c-.25,0-.3.13-.37.3C39.19,132.61,38.75,133.75,38.3,135Zm-17.7,5.2c.8,0,.8,0,1.09.75l.09.25c.11.25.35.17.51.13s0-.22,0-.32c-.42-1.07-.86-2.13-1.28-3.2a.36.36,0,0,0-.39-.28.34.34,0,0,0-.36.26c-.4,1.09-.82,2.17-1.24,3.26,0,.09-.18.23,0,.28s.34.09.45-.1.07-.22.11-.32C19.83,140.16,19.83,140.16,20.6,140.16Zm36.71-11.54c.25,0,.31,0,.21-.27-.45-1.1-.9-2.2-1.33-3.31-.08-.22-.23-.19-.39-.2s-.27,0-.33.23c-.41,1.09-.83,2.17-1.24,3.27,0,.08-.18.24,0,.27s.38.13.47-.12a2.18,2.18,0,0,0,.17-.51c.07-.42.32-.48.72-.52.75-.06,1.27.09,1.38.93A.24.24,0,0,0,57.31,128.62Zm-57.46,11v-.77c0-.89,0-.89.9-.89H.83c.16,0,.26,0,.26-.22s-.06-.27-.26-.27c-.83,0-1.65,0-2.47,0-.19,0-.28,0-.28.25s.14.23.3.22a4.86,4.86,0,0,0,.54,0c.31,0,.42.06.41.39,0,.9,0,1.8,0,2.7,0,.22.1.25.29.25s.24-.06.24-.25C-.16,140.59-.15,140.11-.15,139.64ZM1.8,127h0v1.31c0,.18,0,.34.26.35s.27-.15.27-.34c0-.87,0-1.74,0-2.62,0-.28,0-.43.38-.39a4.14,4.14,0,0,0,.61,0c.16,0,.27,0,.26-.22s-.06-.25-.24-.24H.81c-.16,0-.26,0-.26.23s.11.24.29.23.38,0,.57,0,.41,0,.39.37S1.8,126.54,1.8,127Zm42.8,6c-.32-.5-.64-.94-.91-1.42a.59.59,0,0,0-.81-.29c.2.3.37.6.58.87a3.13,3.13,0,0,1,.85,2.59c0,.2,0,.29.27.3s.26-.12.25-.31,0-.62,0-.93A1,1,0,0,1,45,133c.44-.59.84-1.21,1.27-1.83a.61.61,0,0,0-.81.32C45.24,132,44.93,132.43,44.6,132.93Zm-3.77,6.75v-.77c0-.3-.09-.68.05-.86s.58-.05.88-.08h.08c.19,0,.23-.06.23-.24s-.08-.23-.25-.23H39.31c-.18,0-.24.07-.24.25s.08.25.26.24.44,0,.65,0,.35.07.34.34c0,.9,0,1.8,0,2.7,0,.21,0,.31.28.3s.25-.1.25-.28C40.83,140.58,40.83,140.13,40.83,139.68ZM-2.33,127c0-.47,0-1,0-1.42,0-.2,0-.28.26-.26s.48,0,.73,0,.26,0,.26-.22-.06-.24-.25-.24h-2.5c-.17,0-.25,0-.25.24s.1.23.26.22.44,0,.65,0,.35.08.34.34c0,.91,0,1.82,0,2.73,0,.21.07.26.26.26s.27-.06.26-.26C-2.35,127.91-2.34,127.45-2.33,127Zm12,6.35h0c0-.45,0-.9,0-1.35,0-.25.05-.38.33-.35s.44,0,.66,0,.26,0,.25-.22,0-.26-.23-.26H8.13c-.19,0-.24.07-.25.25s.09.24.26.23a5.61,5.61,0,0,0,.58,0c.36-.06.42.1.41.43,0,.88,0,1.77,0,2.66,0,.21.08.26.28.25s.23-.08.23-.25C9.61,134.26,9.62,133.79,9.62,133.33ZM8.77,127c0,.44,0,.89,0,1.34,0,.2,0,.34.27.34s.26-.16.26-.35c0-.89,0-1.79,0-2.69,0-.23.05-.33.3-.3s.46,0,.69,0,.26,0,.26-.22-.1-.24-.28-.24H7.8c-.19,0-.27,0-.27.25s.11.22.26.21a5.61,5.61,0,0,0,.58,0c.31,0,.43,0,.41.39S8.77,126.53,8.77,127Zm17.93,5.9h0v-1.38c0-.18,0-.32-.26-.32s-.25.12-.25.31c0,1.06,0,2.13,0,3.19,0,.28.11.31.34.31h1.73c.15,0,.29,0,.3-.21s-.15-.24-.32-.24H27c-.2,0-.27-.06-.26-.26C26.71,133.79,26.7,133.33,26.7,132.86Zm18.94,6.54c0,.53,0,1.07,0,1.61,0,.2,0,.3.27.3h1.85c.17,0,.26,0,.26-.23s-.08-.24-.26-.23c-.41,0-.82,0-1.23,0s-.4,0-.39-.37c0-.89,0-1.79,0-2.69,0-.16,0-.3-.22-.3s-.3.07-.29.29C45.65,138.32,45.64,138.86,45.64,139.4ZM42,126.73c0,.54,0,1.08,0,1.62,0,.22.06.28.28.28h1.81c.15,0,.3,0,.3-.22s-.11-.24-.29-.24c-.41,0-.82,0-1.23,0s-.35-.06-.34-.34c0-.91,0-1.82,0-2.73,0-.18,0-.28-.25-.28s-.3.06-.29.28C42,125.65,42,126.19,42,126.73ZM31.25,139.45c0-.56,0-1.11,0-1.66,0-.21-.06-.3-.28-.3s-.25.11-.25.29c0,1.08,0,2.16,0,3.23,0,.17,0,.31.24.3s.29-.06.29-.29C31.24,140.5,31.25,140,31.25,139.45Zm-22-.06c0,.54,0,1.08,0,1.62,0,.19,0,.31.26.3s.25-.1.25-.29c0-1.07,0-2.15,0-3.22,0-.2,0-.31-.27-.31s-.24.16-.23.33Zm44.46-12.63c0-.55,0-1.1,0-1.65,0-.22-.07-.27-.28-.28s-.24.1-.24.28c0,1.08,0,2.17,0,3.26,0,.2.06.27.26.26s.28,0,.27-.25C53.68,127.84,53.69,127.3,53.69,126.76Zm-24.15,0h0v-1.62c0-.19,0-.31-.26-.31s-.26.11-.26.3v3.24c0,.2.05.26.25.26s.28,0,.28-.26C29.54,127.84,29.54,127.3,29.54,126.76Zm-42,0c0,.55,0,1.11,0,1.66,0,.21.07.25.26.25s.28,0,.27-.26c0-1.09,0-2.17,0-3.26,0-.23-.1-.27-.3-.28s-.24.11-.24.28Zm12.42,0v-1.57c0-.17,0-.32-.24-.32s-.26.12-.26.3c0,1.07,0,2.13,0,3.19,0,.17,0,.32.24.31s.25-.1.25-.29C0,127.8,0,127.26,0,126.72Zm37.86,6.33v-1.61c0-.18,0-.28-.25-.28s-.25.09-.24.27c0,1.09,0,2.18,0,3.27,0,.18,0,.27.25.27s.26-.08.25-.27Zm20.78-4.56c-.05-.13.09-.33-.13-.38s-.31-.09-.38,0-.09.39,0,.43c.42.16.14.34,0,.51s-.15.11-.06.22.19,0,.26,0A1.06,1.06,0,0,0,58.63,128.49ZM4.77,77.69s.07,0,.08,0a1.13,1.13,0,0,1,.5-.38c.19-.06-.11-.11-.12-.21s0-.2-.1-.09-.31.25-.44.4A.18.18,0,0,0,4.77,77.69Z"/><path class="cls-17" d="M24.88,44.57l0,0h0c-.61,0-.63,0-.54.56,0,.27,0,.32-.3.29s-.63-.18-.81.21h0c-.26.17-.21.34,0,.5a.52.52,0,0,1,.08.72c-.33.35-.64.72-1,1.07-.1.11-.26.29-.41.2s-.09-.28,0-.41.17-.34-.06-.44-.46-.11-.54.21v0h0l-.34,0c-.48,0-.62.16-.54.63h0c-.25,0-.28.1-.2.3s.21.21.32.3v.32c-.12.18,0,.37,0,.56h0l-.5-.09h0a9.68,9.68,0,0,1-.14-1.32c-.06-.28-.28-.09-.4-.1s0,.21-.06.33h-.08c-.08,0-.18,0-.14-.14.15-.32,0-.63,0-.94S19,47,18.77,47s-.33.08-.36-.16.12-.26.27-.3a.23.23,0,0,0,.18-.22.24.24,0,0,0-.19-.25c-.12,0-.25-.06-.27-.23s0-.39.3-.41a.32.32,0,0,0,.32-.32c0-.21.15-.31.3-.41a2.06,2.06,0,0,0,.61-.49h0c.12,0,.24,0,.23-.16h0c.19,0,.26-.05.24-.23l.06-.07c.26-.06.45-.17.48-.47l.07-.08v0h0c.34,0,.47-.35.73-.47h0c.17,0,.34,0,.4-.18v0h0a1.3,1.3,0,0,0,.27-.52v0h0a.84.84,0,0,0,.82-.44l.07,0a1.2,1.2,0,0,0,.71-.65v0h0a0,0,0,0,0,0,0l.09,0a1.6,1.6,0,0,0,.83-.79h0a.51.51,0,0,0,.51-.16c.21-.22.64-.2.66-.6h0c.24,0,.37-.05.4-.29h0c.4.06.56-.16.6-.52v0h0l0,0,.08-.06c.11,0,.16,0,.16-.15h0a.21.21,0,0,0,.24-.22h0c.07,0,.12,0,.14-.09h0c.19,0,.36-.08.37-.33v0a2.67,2.67,0,0,1,1.42-.28h.07a1.83,1.83,0,0,1,1.82.24s.09,0,.14.05h0c-.05.13,0,.18.14.16,0,.12,0,.18.14.16h0c0,.1.09.09.16.1s.05,0,.05,0,.16.2.32.18h0a.92.92,0,0,0,.53.3h0c0,.18.07.38.29.46h0s0,0,0,.06l0,.07c0,.2.06.4.29.47h0a4.27,4.27,0,0,0,1.24.91h0a.1.1,0,0,0,.11.09l0,.06c0,.12,0,.17.17.16a.05.05,0,0,1,.06,0c0,.26.1.44.41.41l0,0,0,0c0,.12,0,.17.15.16l0,0,0,0a.46.46,0,0,0,.43.49,4.61,4.61,0,0,0,1.24,1.09c0,.15,0,.31.22.3v0l.06.06h0c0,.18.17.2.27.29s.47.45.32.86c.2,0,.33-.2.52-.17h0l0,0c0,.07,0,.12.11.12h0l0,.11.08.08v.35c0,.44,0,.84.6.94a.82.82,0,0,1,.45.16c-.59.21-.62.2-1-.19-.22-.23-.43-.49-.78-.49H36.08c-.11,0-.25,0-.3.11a.32.32,0,0,0,.1.32c.22.17.52.28.35.66,0,0,0,.07.06.09.35.18.55.53.86.75a.41.41,0,0,1,.19.4c-.31-.23-.62-.46-.93-.67a.86.86,0,0,1-.38-.43c-.14-.6-.67-.81-1.05-1.16-.08-.07-.21-.1-.25-.18-.36-.78-1.18-1.06-1.76-1.6-.23-.22-.41-.48-.61-.71a2.93,2.93,0,0,0-2-.77,2.82,2.82,0,0,0-1.44.1.57.57,0,0,1-.73-.37c0-.1-.07-.19-.2-.2s-.2.08-.24.2a1.12,1.12,0,0,1-.72.73,1.51,1.51,0,0,0-.69.62,6.85,6.85,0,0,1-.81,1.18C25.29,44.48,25,44.27,24.88,44.57ZM20,48S20,48,20,48s0,0,0-.06-.05,0-.07,0S20,48,20,48Z"/><path class="cls-18" d="M37.34,47.68a.41.41,0,0,0-.19-.4c-.31-.22-.51-.57-.86-.75,0,0-.07-.07-.06-.09.17-.38-.13-.49-.35-.66a.32.32,0,0,1-.1-.32c0-.13.19-.11.3-.11h2.58c.35,0,.56.26.78.49.36.39.39.4,1,.19a.82.82,0,0,0-.45-.16c-.57-.1-.6-.5-.6-.94v-.35a.65.65,0,0,1,.22.68c-.07.27,0,.42.35.45a1.13,1.13,0,0,1,.91.55c-.21,0-.29.08-.14.27s.14.12.11.23,0,.13.12.12a.32.32,0,0,0,.23-.11c0-.09,0-.15-.09-.18s-.29-.13-.23-.34c.14,0,.22.21.4.21a.13.13,0,0,1,.15.14c0,.39.24.49.5.63s.37.19.32.46a.28.28,0,0,0,.19.31c.54.17.5.77.82,1.08s.37.72.6,1.06a.37.37,0,0,0,.32.18.68.68,0,0,1,.66.33c.46.72,1.07,1.33,1.57,2-.05.09,0,.06,0,.06h0v.08c-.13.16-.08.22.11.22h.15l0,.16c0,.25.07.35.32.32l.06,0c0,.16,0,.37-.18.43s-.24-.16-.3-.3-.16-.19-.25-.1-.38.11-.58.11a6.78,6.78,0,0,0-1.69,0c-.49.13-.64-.16-.89-.38a.62.62,0,0,1-.1-.16.2.2,0,0,0-.32-.06L42.46,53c.1-.15,0-.25-.1-.33s-.19-.05-.21.1c-.74-.88-1.62-1.62-2.37-2.48-.37-.42-.88-.69-1.27-1.09a3.49,3.49,0,0,1-.84-1c0-.22.11-.54-.33-.45Z"/><path class="cls-18" d="M16.67,52.14c-.18.17-.32.2-.5,0s-.54-.17-.82-.24-.18.15-.19.31c0,.33.09.68-.13,1-.06.08-.08.2-.21.18s-.38.09-.5.35c-.09-.33-.23-.55-.53-.57a.69.69,0,0,0-.72.25c-.11.15-.32.13-.5.13-1.33,0-2.65,0-4,0-.37,0-.69.24-1.07.16.08-.21.29-.35.31-.59,0,0,0,0,.07,0h.16c.11,0,.22,0,.23-.14s.32,0,.45-.07a7.93,7.93,0,0,1,1.63-1A14.84,14.84,0,0,1,11.67,51c.15-.05.09-.19.1-.3h0c.08,0,.14,0,.16-.12v0h0c.11,0,.28,0,.26-.19h0c.23,0,.33-.11.4-.3h0c.1,0,.15,0,.16-.14h0a8.64,8.64,0,0,0,1.87-1.23c.13-.1.24-.25.38-.3.44-.16.73-.57,1.2-.66a.15.15,0,0,0,.06-.09c0-.54.47-.62.87-.74a1,1,0,0,0,0,.3.55.55,0,0,0,.52.39c.13,0,.29,0,.37-.12a.57.57,0,0,0,0-.58c0-.07-.18,0-.16-.19.33-.09.59-.24.34-.65a.24.24,0,0,1,.15-.23c0,.17.15.2.27.23a.24.24,0,0,1,.19.25.23.23,0,0,1-.18.22c-.15,0-.3.09-.27.3s.23.16.36.16.33.08.33.31.16.62,0,.94c0,.09.06.13.14.14-.11.38,0,.82-.38,1.1l-.09.06-.07.06h0c-.59,0-.76.19-.76.78,0,.12,0,.23,0,.34v0h0l-.05.06v0c-.18,0-.4-.08-.53.14h0c-.49.08-.55.55-.79.86,0,0,.12.06.19.07Z"/><path class="cls-19" d="M17.17,47c-.4.12-.84.2-.87.74a.15.15,0,0,1-.06.09c-.47.09-.76.5-1.2.66-.14,0-.25.2-.38.3A8.64,8.64,0,0,1,12.79,50a5.42,5.42,0,0,1,1.35-1c.18-.12.39-.2.49-.4s.22-.41.52-.34c.09,0,.16-.07.18-.16s.1-.21.2-.2c.36,0,.48-.23.64-.45a2.36,2.36,0,0,1,1.32-.86h0C17.45,46.78,17.28,46.84,17.17,47Z"/><path class="cls-18" d="M21.25,47.5c.08-.32.3-.32.54-.21s.17.27.06.44-.12.34,0,.41.31-.09.41-.2c.35-.35.66-.72,1-1.07a.52.52,0,0,0-.08-.72c-.21-.16-.26-.33,0-.5-.07.28,0,.46.33.42.16,0,.24,0,.19.22a4.8,4.8,0,0,1-.82,1.29,5.36,5.36,0,0,1-.64.58c-.12.1-.27.22-.45.11s-.11-.32-.11-.49.2-.28,0-.41S21.41,47.47,21.25,47.5Z"/><path class="cls-19" d="M18.4,45.88a.24.24,0,0,0-.15.23c-.12,0-.26,0-.31.14s-.26.28-.44.35h0a1,1,0,0,1,.41-.53c.19-.14.44-.23.4-.54,0,0,.06-.12.08-.12.45,0,.51-.37.7-.62a1.63,1.63,0,0,1,.85-.53,2.06,2.06,0,0,1-.61.49c-.15.1-.3.2-.3.41a.32.32,0,0,1-.32.32C18.39,45.49,18.38,45.67,18.4,45.88Z"/><path class="cls-19" d="M31.77,37.45c-.05,0-.11,0-.14-.05a1.83,1.83,0,0,0-1.82-.24h-.07a2.67,2.67,0,0,0-1.42.28,1.22,1.22,0,0,1,1-.41,2.21,2.21,0,0,0,1.38-.2.26.26,0,0,1,.32,0C31.26,37.08,31.59,37.17,31.77,37.45Z"/><path class="cls-18" d="M23.18,45.65c.18-.39.54-.23.81-.21s.34,0,.3-.29c-.09-.58-.07-.59.54-.56-.28.14-.27.38-.26.65s-.05.43-.45.35A1.77,1.77,0,0,0,23.18,45.65Z"/><path class="cls-20" d="M18.87,49.53c.37-.28.27-.72.38-1.1h.08c.18,0,.23-.31.46-.23a9.68,9.68,0,0,0,.14,1.32.53.53,0,0,1-.22-.49c0-.19-.09-.39-.29-.4s-.17.24-.18.38S19.19,49.51,18.87,49.53Z"/><path class="cls-20" d="M17.93,50.78c0-.11,0-.22,0-.34,0-.59.17-.77.76-.78a.36.36,0,0,1-.3.26c-.35,0-.34.19-.32.44S18.12,50.69,17.93,50.78Z"/><path class="cls-18" d="M39.09,44.26c-.19,0-.32.14-.52.17.15-.41-.09-.63-.32-.86s-.26-.11-.27-.29a1,1,0,0,1,.62.5A.92.92,0,0,0,39.09,44.26Z"/><path class="cls-19" d="M35.06,40.4a4.27,4.27,0,0,1-1.24-.91A3.83,3.83,0,0,1,35.06,40.4Z"/><path class="cls-18" d="M20.34,48.13c-.08-.47.06-.63.54-.63l.34,0s0,.06,0,.06C20.8,47.6,20.58,47.88,20.34,48.13Z"/><path class="cls-19" d="M26.26,39.17c0,.4-.45.38-.66.6a.51.51,0,0,1-.51.16Z"/><path class="cls-19" d="M25.09,39.93a1.6,1.6,0,0,1-.83.79A2.72,2.72,0,0,1,25.09,39.93Z"/><path class="cls-19" d="M23.33,41.52a.84.84,0,0,1-.82.44C22.7,41.65,23.05,41.65,23.33,41.52Z"/><path class="cls-19" d="M24.11,40.83a1.2,1.2,0,0,1-.71.65A2,2,0,0,1,24.11,40.83Z"/><path class="cls-19" d="M21.78,42.72c-.26.12-.39.46-.73.47C21.17,42.84,21.48,42.78,21.78,42.72Z"/><path class="cls-19" d="M27.27,38.35c0,.36-.2.58-.6.52Z"/><path class="cls-20" d="M20.46,48.73c-.11-.09-.26-.15-.32-.3s-.05-.33.2-.3c-.07.15-.14.3.08.4S20.55,48.64,20.46,48.73Z"/><path class="cls-19" d="M20.94,43.33c0,.3-.22.41-.48.47A1.44,1.44,0,0,1,20.94,43.33Z"/><path class="cls-20" d="M20.43,49.61c0-.19-.08-.38,0-.56C20.62,49.25,20.7,49.44,20.43,49.61Z"/><path class="cls-17" d="M37.34,47.68c.44-.09.31.23.33.45C37.46,48.05,37.41,47.86,37.34,47.68Z"/><path class="cls-19" d="M36.43,41.8a.46.46,0,0,1-.43-.49A1.08,1.08,0,0,1,36.43,41.8Z"/><path class="cls-19" d="M35.85,41.16c-.31,0-.41-.15-.41-.41A1.24,1.24,0,0,1,35.85,41.16Z"/><path class="cls-19" d="M22.49,42a1.3,1.3,0,0,1-.27.52C22.26,42.3,22.22,42.06,22.49,42Z"/><path class="cls-18" d="M24.88,44.57c.14-.3.41-.09.62-.15C25.33,44.64,25.08,44.52,24.88,44.57Z"/><path class="cls-20" d="M19.93,49.52l.5.09C20.21,49.87,20.07,49.72,19.93,49.52Z"/><path class="cls-19" d="M33.12,38.4a.92.92,0,0,1-.53-.3A.84.84,0,0,1,33.12,38.4Z"/><path class="cls-19" d="M26.65,38.88c0,.24-.16.33-.4.29A.69.69,0,0,1,26.65,38.88Z"/><path class="cls-19" d="M22.19,42.53c-.06.22-.23.2-.4.18C21.87,42.54,22.05,42.57,22.19,42.53Z"/><path class="cls-19" d="M33.81,39.48c-.23-.07-.25-.27-.29-.47Z"/><path class="cls-19" d="M33.42,38.87c-.22-.08-.24-.28-.29-.46A.67.67,0,0,1,33.42,38.87Z"/><path class="cls-19" d="M28.32,37.45c0,.25-.18.29-.37.33A.79.79,0,0,1,28.32,37.45Z"/><path class="cls-19" d="M32.59,38.09c-.16,0-.28,0-.32-.18A.33.33,0,0,1,32.59,38.09Z"/><path class="cls-19" d="M20.4,43.87c0,.18,0,.27-.24.23Z"/><path class="cls-18" d="M37.89,43.19c-.23,0-.22-.15-.22-.3Z"/><path class="cls-19" d="M27.81,37.87a.21.21,0,0,1-.24.22A.38.38,0,0,1,27.81,37.87Z"/><path class="cls-19" d="M20.16,44.1c0,.17-.11.17-.23.16A.41.41,0,0,1,20.16,44.1Z"/><path class="cls-19" d="M35.38,40.71c-.12,0-.17,0-.17-.16A.23.23,0,0,1,35.38,40.71Z"/><path class="cls-19" d="M36,41.32c-.13,0-.18,0-.15-.16A.19.19,0,0,1,36,41.32Z"/><path class="cls-19" d="M12.78,50c0,.1-.06.15-.16.14A.19.19,0,0,1,12.78,50Z"/><path class="cls-19" d="M27.57,38.1c0,.1-.05.15-.16.15A.19.19,0,0,1,27.57,38.1Z"/><path class="cls-19" d="M32.06,37.77c-.12,0-.17,0-.14-.16A.22.22,0,0,1,32.06,37.77Z"/><path class="cls-19" d="M31.92,37.61c-.14,0-.19,0-.14-.16Z"/><path class="cls-19" d="M32.22,37.87c-.07,0-.14,0-.16-.1S32.2,37.79,32.22,37.87Z"/><path class="cls-19" d="M35.17,40.49a.1.1,0,0,1-.11-.09C35.12,40.41,35.16,40.42,35.17,40.49Z"/><path class="cls-19" d="M28,37.78c0,.07-.07.08-.14.09S27.88,37.78,28,37.78Z"/><path class="cls-18" d="M39.25,44.4c-.08,0-.11,0-.11-.12S39.24,44.33,39.25,44.4Z"/><path class="cls-20" d="M18.71,49.65l.07-.06Z"/><path class="cls-18" d="M39.29,44.5l0-.11Z"/><path class="cls-18" d="M38,43.27l-.06-.06S38,43.22,38,43.27Z"/><polygon class="cls-19" points="21.02 43.23 21 43.25 20.99 43.23 21.02 43.23"/><path class="cls-19" d="M24.17,40.76a0,0,0,0,1,0,0v0Z"/><path class="cls-19" d="M33.48,38.94s0,0,0-.06S33.49,38.89,33.48,38.94Z"/><polygon class="cls-19" points="27.33 38.31 27.3 38.33 27.3 38.3 27.33 38.31"/><path class="cls-18" d="M19.79,48.2c-.23-.08-.28.22-.46.23,0-.12,0-.34.06-.33S19.73,47.92,19.79,48.2Z"/><path class="cls-18" d="M20,48s0-.06,0-.06,0,0,.07,0,0,.06,0,.06S20,48,20,48Z"/><path class="cls-17" d="M40.85,46.25c-.06.21.09.27.23.34s.14.09.09.18a.32.32,0,0,1-.23.11c-.09,0-.15,0-.12-.12s-.06-.16-.11-.23-.07-.26.14-.27Z"/><path class="cls-17" d="M17.5,46.6c.18-.07.38-.13.44-.35s.19-.12.31-.14c.25.41,0,.56-.34.65,0,.15.12.12.16.19a.57.57,0,0,1,0,.58c-.08.16-.24.14-.37.12a.55.55,0,0,1-.52-.39,1,1,0,0,1,0-.3C17.28,46.84,17.45,46.78,17.5,46.6Z"/></g></svg>